ISO-10303-21;
HEADER;
/* Generated by software containing ST-Developer
 * from STEP Tools, Inc. (www.steptools.com) 
 */
/* OPTION: using custom renumber hook */

FILE_DESCRIPTION(
/* description */ ('STEP AP242 Edition 2',
'CAx-IF Rec.Pracs.---Representation and Presentation of Product Manufa
cturing Information (PMI)---4.0---2014-10-13',
'CAx-IF Rec.Pracs.---3D Tessellated Geometry---0.4---2014-09-14','2;1',
'CAx-IF Rec.Pracs.---User Defined Attributes---1.5---2016-08-15'),
/* implementation_level */ '2;1');

FILE_NAME(
/* name */ 'handle_v13 - Part 1',
/* time_stamp */ '2026-09-29T05:56:02Z',
/* author */ (''),
/* organization */ (''),
/* preprocessor_version */ 'ST-DEVELOPER v20',
/* originating_system */ 'ONSHAPE BY PTC INC, 1.221',
/* authorisation */ '  ');

FILE_SCHEMA (('AP242_MANAGED_MODEL_BASED_3D_ENGINEERING_MIM_LF { 1 0 10303 442 3 1 4 }'));
ENDSEC;

DATA;
#10=SHAPE_REPRESENTATION_RELATIONSHIP('','',#672,#11);
#11=ADVANCED_BREP_SHAPE_REPRESENTATION('',(#670),#1104);
#12=CYLINDRICAL_SURFACE('',#714,0.002);
#13=CYLINDRICAL_SURFACE('',#716,0.0022);
#14=CYLINDRICAL_SURFACE('',#719,0.00145);
#15=B_SPLINE_SURFACE_WITH_KNOTS('',3,1,((#982,#983),(#984,#985),(#986,#987),
(#988,#989),(#990,#991),(#992,#993),(#994,#995),(#996,#997),(#998,#999),
(#1000,#1001),(#1002,#1003)),.SURF_OF_LINEAR_EXTRUSION.,.F.,.F.,.F.,(4,
1,1,1,1,1,1,1,4),(2,2),(0.,0.392699081698729,0.785398163397458,1.17809724509619,
1.57079632679492,1.96349540849364,2.35619449019237,2.7488935718911,3.14159265358983),
(0.,1.),.UNSPECIFIED.);
#16=ELLIPSE('',#679,0.0130000094421922,0.00650000230953929);
#17=ELLIPSE('',#682,0.013,0.00649999998161782);
#18=ELLIPSE('',#683,0.0129998595225396,0.00649996378237216);
#19=ELLIPSE('',#684,0.0129998595225346,0.00649996378237063);
#20=ELLIPSE('',#685,0.0129998595225396,0.00649996378237216);
#21=ELLIPSE('',#686,0.0129998595225346,0.00649996378237063);
#22=ELLIPSE('',#687,0.012999859507418,0.00649996377837611);
#23=ELLIPSE('',#688,0.0129998595074069,0.00649996377837357);
#24=ELLIPSE('',#689,0.012999859507418,0.00649996377837611);
#25=ELLIPSE('',#690,0.0129998595074069,0.00649996377837357);
#26=ELLIPSE('',#691,0.0130000013479939,0.00650000066830446);
#27=LINE('',#900,#102);
#28=LINE('',#903,#103);
#29=LINE('',#905,#104);
#30=LINE('',#907,#105);
#31=LINE('',#909,#106);
#32=LINE('',#912,#107);
#33=LINE('',#914,#108);
#34=LINE('',#916,#109);
#35=LINE('',#918,#110);
#36=LINE('',#920,#111);
#37=LINE('',#922,#112);
#38=LINE('',#924,#113);
#39=LINE('',#926,#114);
#40=LINE('',#928,#115);
#41=LINE('',#929,#116);
#42=LINE('',#931,#117);
#43=LINE('',#934,#118);
#44=LINE('',#937,#119);
#45=LINE('',#940,#120);
#46=LINE('',#941,#121);
#47=LINE('',#943,#122);
#48=LINE('',#944,#123);
#49=LINE('',#947,#124);
#50=LINE('',#949,#125);
#51=LINE('',#951,#126);
#52=LINE('',#952,#127);
#53=LINE('',#955,#128);
#54=LINE('',#957,#129);
#55=LINE('',#959,#130);
#56=LINE('',#960,#131);
#57=LINE('',#963,#132);
#58=LINE('',#965,#133);
#59=LINE('',#967,#134);
#60=LINE('',#968,#135);
#61=LINE('',#971,#136);
#62=LINE('',#973,#137);
#63=LINE('',#975,#138);
#64=LINE('',#977,#139);
#65=LINE('',#979,#140);
#66=LINE('',#1006,#141);
#67=LINE('',#1011,#142);
#68=LINE('',#1014,#143);
#69=LINE('',#1018,#144);
#70=LINE('',#1022,#145);
#71=LINE('',#1026,#146);
#72=LINE('',#1030,#147);
#73=LINE('',#1034,#148);
#74=LINE('',#1036,#149);
#75=LINE('',#1037,#150);
#76=LINE('',#1039,#151);
#77=LINE('',#1041,#152);
#78=LINE('',#1043,#153);
#79=LINE('',#1044,#154);
#80=LINE('',#1046,#155);
#81=LINE('',#1048,#156);
#82=LINE('',#1050,#157);
#83=LINE('',#1052,#158);
#84=LINE('',#1054,#159);
#85=LINE('',#1056,#160);
#86=LINE('',#1064,#161);
#87=LINE('',#1066,#162);
#88=LINE('',#1067,#163);
#89=LINE('',#1069,#164);
#90=LINE('',#1071,#165);
#91=LINE('',#1073,#166);
#92=LINE('',#1074,#167);
#93=LINE('',#1077,#168);
#94=LINE('',#1079,#169);
#95=LINE('',#1080,#170);
#96=LINE('',#1082,#171);
#97=LINE('',#1084,#172);
#98=LINE('',#1086,#173);
#99=LINE('',#1088,#174);
#100=LINE('',#1091,#175);
#101=LINE('',#1099,#176);
#102=VECTOR('',#730,1.);
#103=VECTOR('',#731,1.);
#104=VECTOR('',#732,1.);
#105=VECTOR('',#733,1.);
#106=VECTOR('',#736,1.);
#107=VECTOR('',#737,1.);
#108=VECTOR('',#738,1.);
#109=VECTOR('',#739,1.);
#110=VECTOR('',#740,1.);
#111=VECTOR('',#741,1.);
#112=VECTOR('',#742,1.);
#113=VECTOR('',#743,1.);
#114=VECTOR('',#744,1.);
#115=VECTOR('',#745,1.);
#116=VECTOR('',#746,1.);
#117=VECTOR('',#749,1.);
#118=VECTOR('',#750,1.);
#119=VECTOR('',#755,1.);
#120=VECTOR('',#756,1.);
#121=VECTOR('',#757,1.);
#122=VECTOR('',#758,1.);
#123=VECTOR('',#759,1.);
#124=VECTOR('',#760,1.);
#125=VECTOR('',#761,1.);
#126=VECTOR('',#762,1.);
#127=VECTOR('',#763,1.);
#128=VECTOR('',#764,1.);
#129=VECTOR('',#765,1.);
#130=VECTOR('',#766,1.);
#131=VECTOR('',#767,1.);
#132=VECTOR('',#768,1.);
#133=VECTOR('',#769,1.);
#134=VECTOR('',#770,1.);
#135=VECTOR('',#771,1.);
#136=VECTOR('',#772,1.);
#137=VECTOR('',#773,1.);
#138=VECTOR('',#774,1.);
#139=VECTOR('',#777,1.);
#140=VECTOR('',#778,1.);
#141=VECTOR('',#783,1.);
#142=VECTOR('',#788,1.);
#143=VECTOR('',#791,1.);
#144=VECTOR('',#794,1.);
#145=VECTOR('',#797,1.);
#146=VECTOR('',#800,1.);
#147=VECTOR('',#803,1.);
#148=VECTOR('',#806,1.);
#149=VECTOR('',#809,1.);
#150=VECTOR('',#810,1.);
#151=VECTOR('',#813,1.);
#152=VECTOR('',#816,1.);
#153=VECTOR('',#819,1.);
#154=VECTOR('',#820,1.);
#155=VECTOR('',#823,1.);
#156=VECTOR('',#826,1.);
#157=VECTOR('',#829,1.);
#158=VECTOR('',#832,1.);
#159=VECTOR('',#833,1.);
#160=VECTOR('',#836,1.);
#161=VECTOR('',#847,1.);
#162=VECTOR('',#848,1.);
#163=VECTOR('',#849,1.);
#164=VECTOR('',#852,1.);
#165=VECTOR('',#853,1.);
#166=VECTOR('',#856,1.);
#167=VECTOR('',#857,1.);
#168=VECTOR('',#862,1.);
#169=VECTOR('',#863,1.);
#170=VECTOR('',#864,1.);
#171=VECTOR('',#867,1.);
#172=VECTOR('',#870,1.);
#173=VECTOR('',#871,1.);
#174=VECTOR('',#874,1.);
#175=VECTOR('',#879,1.);
#176=VECTOR('',#890,1.);
#177=ORIENTED_EDGE('',*,*,#361,.T.);
#178=ORIENTED_EDGE('',*,*,#362,.F.);
#179=ORIENTED_EDGE('',*,*,#363,.F.);
#180=ORIENTED_EDGE('',*,*,#364,.F.);
#181=ORIENTED_EDGE('',*,*,#365,.T.);
#182=ORIENTED_EDGE('',*,*,#366,.F.);
#183=ORIENTED_EDGE('',*,*,#367,.F.);
#184=ORIENTED_EDGE('',*,*,#368,.F.);
#185=ORIENTED_EDGE('',*,*,#369,.T.);
#186=ORIENTED_EDGE('',*,*,#370,.F.);
#187=ORIENTED_EDGE('',*,*,#371,.F.);
#188=ORIENTED_EDGE('',*,*,#372,.F.);
#189=ORIENTED_EDGE('',*,*,#373,.T.);
#190=ORIENTED_EDGE('',*,*,#374,.F.);
#191=ORIENTED_EDGE('',*,*,#375,.F.);
#192=ORIENTED_EDGE('',*,*,#365,.F.);
#193=ORIENTED_EDGE('',*,*,#376,.T.);
#194=ORIENTED_EDGE('',*,*,#377,.T.);
#195=ORIENTED_EDGE('',*,*,#378,.F.);
#196=ORIENTED_EDGE('',*,*,#362,.T.);
#197=ORIENTED_EDGE('',*,*,#375,.T.);
#198=ORIENTED_EDGE('',*,*,#379,.T.);
#199=ORIENTED_EDGE('',*,*,#380,.F.);
#200=ORIENTED_EDGE('',*,*,#381,.F.);
#201=ORIENTED_EDGE('',*,*,#363,.T.);
#202=ORIENTED_EDGE('',*,*,#378,.T.);
#203=ORIENTED_EDGE('',*,*,#382,.F.);
#204=ORIENTED_EDGE('',*,*,#383,.T.);
#205=ORIENTED_EDGE('',*,*,#384,.F.);
#206=ORIENTED_EDGE('',*,*,#385,.T.);
#207=ORIENTED_EDGE('',*,*,#386,.T.);
#208=ORIENTED_EDGE('',*,*,#387,.F.);
#209=ORIENTED_EDGE('',*,*,#388,.F.);
#210=ORIENTED_EDGE('',*,*,#389,.T.);
#211=ORIENTED_EDGE('',*,*,#390,.T.);
#212=ORIENTED_EDGE('',*,*,#391,.F.);
#213=ORIENTED_EDGE('',*,*,#392,.F.);
#214=ORIENTED_EDGE('',*,*,#393,.T.);
#215=ORIENTED_EDGE('',*,*,#394,.T.);
#216=ORIENTED_EDGE('',*,*,#395,.F.);
#217=ORIENTED_EDGE('',*,*,#396,.F.);
#218=ORIENTED_EDGE('',*,*,#397,.T.);
#219=ORIENTED_EDGE('',*,*,#398,.T.);
#220=ORIENTED_EDGE('',*,*,#399,.F.);
#221=ORIENTED_EDGE('',*,*,#400,.F.);
#222=ORIENTED_EDGE('',*,*,#401,.F.);
#223=ORIENTED_EDGE('',*,*,#402,.F.);
#224=ORIENTED_EDGE('',*,*,#376,.F.);
#225=ORIENTED_EDGE('',*,*,#364,.T.);
#226=ORIENTED_EDGE('',*,*,#381,.T.);
#227=ORIENTED_EDGE('',*,*,#379,.F.);
#228=ORIENTED_EDGE('',*,*,#374,.T.);
#229=ORIENTED_EDGE('',*,*,#403,.T.);
#230=ORIENTED_EDGE('',*,*,#404,.T.);
#231=ORIENTED_EDGE('',*,*,#405,.F.);
#232=ORIENTED_EDGE('',*,*,#370,.T.);
#233=ORIENTED_EDGE('',*,*,#406,.T.);
#234=ORIENTED_EDGE('',*,*,#407,.T.);
#235=ORIENTED_EDGE('',*,*,#408,.F.);
#236=ORIENTED_EDGE('',*,*,#366,.T.);
#237=ORIENTED_EDGE('',*,*,#402,.T.);
#238=ORIENTED_EDGE('',*,*,#409,.T.);
#239=ORIENTED_EDGE('',*,*,#410,.F.);
#240=ORIENTED_EDGE('',*,*,#411,.F.);
#241=ORIENTED_EDGE('',*,*,#412,.T.);
#242=ORIENTED_EDGE('',*,*,#413,.T.);
#243=ORIENTED_EDGE('',*,*,#414,.F.);
#244=ORIENTED_EDGE('',*,*,#415,.F.);
#245=ORIENTED_EDGE('',*,*,#416,.T.);
#246=ORIENTED_EDGE('',*,*,#417,.T.);
#247=ORIENTED_EDGE('',*,*,#418,.F.);
#248=ORIENTED_EDGE('',*,*,#419,.T.);
#249=ORIENTED_EDGE('',*,*,#420,.F.);
#250=ORIENTED_EDGE('',*,*,#367,.T.);
#251=ORIENTED_EDGE('',*,*,#408,.T.);
#252=ORIENTED_EDGE('',*,*,#421,.T.);
#253=ORIENTED_EDGE('',*,*,#386,.F.);
#254=ORIENTED_EDGE('',*,*,#422,.F.);
#255=ORIENTED_EDGE('',*,*,#368,.T.);
#256=ORIENTED_EDGE('',*,*,#420,.T.);
#257=ORIENTED_EDGE('',*,*,#385,.F.);
#258=ORIENTED_EDGE('',*,*,#384,.T.);
#259=ORIENTED_EDGE('',*,*,#423,.F.);
#260=ORIENTED_EDGE('',*,*,#406,.F.);
#261=ORIENTED_EDGE('',*,*,#369,.F.);
#262=ORIENTED_EDGE('',*,*,#422,.T.);
#263=ORIENTED_EDGE('',*,*,#424,.F.);
#264=ORIENTED_EDGE('',*,*,#371,.T.);
#265=ORIENTED_EDGE('',*,*,#405,.T.);
#266=ORIENTED_EDGE('',*,*,#425,.T.);
#267=ORIENTED_EDGE('',*,*,#390,.F.);
#268=ORIENTED_EDGE('',*,*,#426,.F.);
#269=ORIENTED_EDGE('',*,*,#372,.T.);
#270=ORIENTED_EDGE('',*,*,#424,.T.);
#271=ORIENTED_EDGE('',*,*,#389,.F.);
#272=ORIENTED_EDGE('',*,*,#388,.T.);
#273=ORIENTED_EDGE('',*,*,#427,.F.);
#274=ORIENTED_EDGE('',*,*,#403,.F.);
#275=ORIENTED_EDGE('',*,*,#373,.F.);
#276=ORIENTED_EDGE('',*,*,#426,.T.);
#277=ORIENTED_EDGE('',*,*,#428,.T.);
#278=ORIENTED_EDGE('',*,*,#382,.T.);
#279=ORIENTED_EDGE('',*,*,#377,.F.);
#280=ORIENTED_EDGE('',*,*,#419,.F.);
#281=ORIENTED_EDGE('',*,*,#429,.F.);
#282=ORIENTED_EDGE('',*,*,#400,.T.);
#283=ORIENTED_EDGE('',*,*,#380,.T.);
#284=ORIENTED_EDGE('',*,*,#430,.F.);
#285=ORIENTED_EDGE('',*,*,#383,.F.);
#286=ORIENTED_EDGE('',*,*,#428,.F.);
#287=ORIENTED_EDGE('',*,*,#418,.T.);
#288=ORIENTED_EDGE('',*,*,#431,.T.);
#289=ORIENTED_EDGE('',*,*,#430,.T.);
#290=ORIENTED_EDGE('',*,*,#432,.F.);
#291=ORIENTED_EDGE('',*,*,#433,.F.);
#292=ORIENTED_EDGE('',*,*,#387,.T.);
#293=ORIENTED_EDGE('',*,*,#421,.F.);
#294=ORIENTED_EDGE('',*,*,#407,.F.);
#295=ORIENTED_EDGE('',*,*,#423,.T.);
#296=ORIENTED_EDGE('',*,*,#391,.T.);
#297=ORIENTED_EDGE('',*,*,#425,.F.);
#298=ORIENTED_EDGE('',*,*,#404,.F.);
#299=ORIENTED_EDGE('',*,*,#427,.T.);
#300=ORIENTED_EDGE('',*,*,#392,.T.);
#301=ORIENTED_EDGE('',*,*,#434,.F.);
#302=ORIENTED_EDGE('',*,*,#435,.F.);
#303=ORIENTED_EDGE('',*,*,#412,.F.);
#304=ORIENTED_EDGE('',*,*,#436,.T.);
#305=ORIENTED_EDGE('',*,*,#395,.T.);
#306=ORIENTED_EDGE('',*,*,#437,.F.);
#307=ORIENTED_EDGE('',*,*,#438,.F.);
#308=ORIENTED_EDGE('',*,*,#434,.T.);
#309=ORIENTED_EDGE('',*,*,#439,.F.);
#310=ORIENTED_EDGE('',*,*,#410,.T.);
#311=ORIENTED_EDGE('',*,*,#440,.T.);
#312=ORIENTED_EDGE('',*,*,#437,.T.);
#313=ORIENTED_EDGE('',*,*,#394,.F.);
#314=ORIENTED_EDGE('',*,*,#436,.F.);
#315=ORIENTED_EDGE('',*,*,#411,.T.);
#316=ORIENTED_EDGE('',*,*,#439,.T.);
#317=ORIENTED_EDGE('',*,*,#393,.F.);
#318=ORIENTED_EDGE('',*,*,#396,.T.);
#319=ORIENTED_EDGE('',*,*,#441,.F.);
#320=ORIENTED_EDGE('',*,*,#442,.F.);
#321=ORIENTED_EDGE('',*,*,#416,.F.);
#322=ORIENTED_EDGE('',*,*,#443,.T.);
#323=ORIENTED_EDGE('',*,*,#443,.F.);
#324=ORIENTED_EDGE('',*,*,#415,.T.);
#325=ORIENTED_EDGE('',*,*,#444,.T.);
#326=ORIENTED_EDGE('',*,*,#397,.F.);
#327=ORIENTED_EDGE('',*,*,#399,.T.);
#328=ORIENTED_EDGE('',*,*,#445,.F.);
#329=ORIENTED_EDGE('',*,*,#446,.F.);
#330=ORIENTED_EDGE('',*,*,#441,.T.);
#331=ORIENTED_EDGE('',*,*,#444,.F.);
#332=ORIENTED_EDGE('',*,*,#414,.T.);
#333=ORIENTED_EDGE('',*,*,#447,.T.);
#334=ORIENTED_EDGE('',*,*,#445,.T.);
#335=ORIENTED_EDGE('',*,*,#398,.F.);
#336=ORIENTED_EDGE('',*,*,#429,.T.);
#337=ORIENTED_EDGE('',*,*,#431,.F.);
#338=ORIENTED_EDGE('',*,*,#417,.F.);
#339=ORIENTED_EDGE('',*,*,#442,.T.);
#340=ORIENTED_EDGE('',*,*,#446,.T.);
#341=ORIENTED_EDGE('',*,*,#447,.F.);
#342=ORIENTED_EDGE('',*,*,#413,.F.);
#343=ORIENTED_EDGE('',*,*,#435,.T.);
#344=ORIENTED_EDGE('',*,*,#438,.T.);
#345=ORIENTED_EDGE('',*,*,#440,.F.);
#346=ORIENTED_EDGE('',*,*,#409,.F.);
#347=ORIENTED_EDGE('',*,*,#401,.T.);
#348=ORIENTED_EDGE('',*,*,#448,.F.);
#349=ORIENTED_EDGE('',*,*,#449,.F.);
#350=ORIENTED_EDGE('',*,*,#448,.T.);
#351=ORIENTED_EDGE('',*,*,#432,.T.);
#352=ORIENTED_EDGE('',*,*,#433,.T.);
#353=ORIENTED_EDGE('',*,*,#361,.F.);
#354=ORIENTED_EDGE('',*,*,#449,.T.);
#355=ORIENTED_EDGE('',*,*,#450,.F.);
#356=ORIENTED_EDGE('',*,*,#451,.F.);
#357=ORIENTED_EDGE('',*,*,#452,.F.);
#358=ORIENTED_EDGE('',*,*,#451,.T.);
#359=ORIENTED_EDGE('',*,*,#450,.T.);
#360=ORIENTED_EDGE('',*,*,#452,.T.);
#361=EDGE_CURVE('',#453,#453,#515,.T.);
#362=EDGE_CURVE('',#454,#455,#27,.F.);
#363=EDGE_CURVE('',#456,#454,#28,.T.);
#364=EDGE_CURVE('',#457,#456,#29,.T.);
#365=EDGE_CURVE('',#457,#455,#30,.T.);
#366=EDGE_CURVE('',#458,#459,#31,.F.);
#367=EDGE_CURVE('',#460,#458,#32,.T.);
#368=EDGE_CURVE('',#461,#460,#33,.F.);
#369=EDGE_CURVE('',#461,#462,#34,.T.);
#370=EDGE_CURVE('',#463,#462,#35,.F.);
#371=EDGE_CURVE('',#464,#463,#36,.T.);
#372=EDGE_CURVE('',#465,#464,#37,.F.);
#373=EDGE_CURVE('',#465,#466,#38,.T.);
#374=EDGE_CURVE('',#467,#466,#39,.F.);
#375=EDGE_CURVE('',#455,#467,#40,.T.);
#376=EDGE_CURVE('',#457,#459,#41,.T.);
#377=EDGE_CURVE('',#468,#469,#42,.T.);
#378=EDGE_CURVE('',#454,#469,#43,.T.);
#379=EDGE_CURVE('',#467,#468,#16,.T.);
#380=EDGE_CURVE('',#470,#471,#44,.T.);
#381=EDGE_CURVE('',#456,#470,#45,.T.);
#382=EDGE_CURVE('',#472,#469,#46,.F.);
#383=EDGE_CURVE('',#472,#471,#47,.T.);
#384=EDGE_CURVE('',#473,#474,#48,.T.);
#385=EDGE_CURVE('',#473,#475,#49,.F.);
#386=EDGE_CURVE('',#475,#476,#50,.T.);
#387=EDGE_CURVE('',#474,#476,#51,.F.);
#388=EDGE_CURVE('',#477,#478,#52,.T.);
#389=EDGE_CURVE('',#477,#479,#53,.F.);
#390=EDGE_CURVE('',#479,#480,#54,.T.);
#391=EDGE_CURVE('',#478,#480,#55,.F.);
#392=EDGE_CURVE('',#481,#482,#56,.T.);
#393=EDGE_CURVE('',#481,#483,#57,.F.);
#394=EDGE_CURVE('',#483,#484,#58,.T.);
#395=EDGE_CURVE('',#482,#484,#59,.F.);
#396=EDGE_CURVE('',#485,#486,#60,.T.);
#397=EDGE_CURVE('',#485,#487,#61,.F.);
#398=EDGE_CURVE('',#487,#488,#62,.T.);
#399=EDGE_CURVE('',#486,#488,#63,.F.);
#400=EDGE_CURVE('',#489,#470,#64,.F.);
#401=EDGE_CURVE('',#490,#489,#65,.T.);
#402=EDGE_CURVE('',#459,#490,#17,.T.);
#403=EDGE_CURVE('',#466,#491,#18,.T.);
#404=EDGE_CURVE('',#491,#492,#66,.F.);
#405=EDGE_CURVE('',#463,#492,#19,.T.);
#406=EDGE_CURVE('',#462,#493,#20,.T.);
#407=EDGE_CURVE('',#493,#494,#67,.F.);
#408=EDGE_CURVE('',#458,#494,#21,.T.);
#409=EDGE_CURVE('',#490,#495,#68,.T.);
#410=EDGE_CURVE('',#496,#495,#22,.T.);
#411=EDGE_CURVE('',#497,#496,#69,.F.);
#412=EDGE_CURVE('',#497,#498,#23,.T.);
#413=EDGE_CURVE('',#498,#499,#70,.T.);
#414=EDGE_CURVE('',#500,#499,#24,.T.);
#415=EDGE_CURVE('',#501,#500,#71,.F.);
#416=EDGE_CURVE('',#501,#502,#25,.T.);
#417=EDGE_CURVE('',#502,#503,#72,.T.);
#418=EDGE_CURVE('',#504,#503,#26,.T.);
#419=EDGE_CURVE('',#504,#468,#73,.F.);
#420=EDGE_CURVE('',#460,#475,#74,.F.);
#421=EDGE_CURVE('',#494,#476,#75,.T.);
#422=EDGE_CURVE('',#461,#473,#76,.T.);
#423=EDGE_CURVE('',#493,#474,#77,.F.);
#424=EDGE_CURVE('',#464,#479,#78,.F.);
#425=EDGE_CURVE('',#492,#480,#79,.T.);
#426=EDGE_CURVE('',#465,#477,#80,.T.);
#427=EDGE_CURVE('',#491,#478,#81,.F.);
#428=EDGE_CURVE('',#504,#472,#82,.F.);
#429=EDGE_CURVE('',#489,#505,#83,.T.);
#430=EDGE_CURVE('',#505,#471,#84,.T.);
#431=EDGE_CURVE('',#503,#505,#85,.T.);
#432=EDGE_CURVE('',#506,#506,#516,.T.);
#433=EDGE_CURVE('',#507,#507,#517,.T.);
#434=EDGE_CURVE('',#508,#482,#86,.F.);
#435=EDGE_CURVE('',#498,#508,#87,.T.);
#436=EDGE_CURVE('',#497,#481,#88,.T.);
#437=EDGE_CURVE('',#509,#484,#89,.T.);
#438=EDGE_CURVE('',#508,#509,#90,.F.);
#439=EDGE_CURVE('',#496,#483,#91,.F.);
#440=EDGE_CURVE('',#495,#509,#92,.T.);
#441=EDGE_CURVE('',#510,#486,#93,.F.);
#442=EDGE_CURVE('',#502,#510,#94,.T.);
#443=EDGE_CURVE('',#501,#485,#95,.T.);
#444=EDGE_CURVE('',#500,#487,#96,.F.);
#445=EDGE_CURVE('',#511,#488,#97,.T.);
#446=EDGE_CURVE('',#510,#511,#98,.F.);
#447=EDGE_CURVE('',#499,#511,#99,.T.);
#448=EDGE_CURVE('',#512,#506,#100,.T.);
#449=EDGE_CURVE('',#512,#512,#518,.T.);
#450=EDGE_CURVE('',#513,#513,#519,.T.);
#451=EDGE_CURVE('',#514,#513,#101,.T.);
#452=EDGE_CURVE('',#514,#514,#520,.T.);
#453=VERTEX_POINT('',#898);
#454=VERTEX_POINT('',#901);
#455=VERTEX_POINT('',#902);
#456=VERTEX_POINT('',#904);
#457=VERTEX_POINT('',#906);
#458=VERTEX_POINT('',#910);
#459=VERTEX_POINT('',#911);
#460=VERTEX_POINT('',#913);
#461=VERTEX_POINT('',#915);
#462=VERTEX_POINT('',#917);
#463=VERTEX_POINT('',#919);
#464=VERTEX_POINT('',#921);
#465=VERTEX_POINT('',#923);
#466=VERTEX_POINT('',#925);
#467=VERTEX_POINT('',#927);
#468=VERTEX_POINT('',#932);
#469=VERTEX_POINT('',#933);
#470=VERTEX_POINT('',#938);
#471=VERTEX_POINT('',#939);
#472=VERTEX_POINT('',#942);
#473=VERTEX_POINT('',#945);
#474=VERTEX_POINT('',#946);
#475=VERTEX_POINT('',#948);
#476=VERTEX_POINT('',#950);
#477=VERTEX_POINT('',#953);
#478=VERTEX_POINT('',#954);
#479=VERTEX_POINT('',#956);
#480=VERTEX_POINT('',#958);
#481=VERTEX_POINT('',#961);
#482=VERTEX_POINT('',#962);
#483=VERTEX_POINT('',#964);
#484=VERTEX_POINT('',#966);
#485=VERTEX_POINT('',#969);
#486=VERTEX_POINT('',#970);
#487=VERTEX_POINT('',#972);
#488=VERTEX_POINT('',#974);
#489=VERTEX_POINT('',#978);
#490=VERTEX_POINT('',#980);
#491=VERTEX_POINT('',#1005);
#492=VERTEX_POINT('',#1007);
#493=VERTEX_POINT('',#1010);
#494=VERTEX_POINT('',#1012);
#495=VERTEX_POINT('',#1015);
#496=VERTEX_POINT('',#1017);
#497=VERTEX_POINT('',#1019);
#498=VERTEX_POINT('',#1021);
#499=VERTEX_POINT('',#1023);
#500=VERTEX_POINT('',#1025);
#501=VERTEX_POINT('',#1027);
#502=VERTEX_POINT('',#1029);
#503=VERTEX_POINT('',#1031);
#504=VERTEX_POINT('',#1033);
#505=VERTEX_POINT('',#1053);
#506=VERTEX_POINT('',#1058);
#507=VERTEX_POINT('',#1060);
#508=VERTEX_POINT('',#1065);
#509=VERTEX_POINT('',#1070);
#510=VERTEX_POINT('',#1078);
#511=VERTEX_POINT('',#1085);
#512=VERTEX_POINT('',#1092);
#513=VERTEX_POINT('',#1097);
#514=VERTEX_POINT('',#1100);
#515=CIRCLE('',#675,0.0022);
#516=CIRCLE('',#701,0.002);
#517=CIRCLE('',#702,0.0022);
#518=CIRCLE('',#715,0.002);
#519=CIRCLE('',#718,0.00145);
#520=CIRCLE('',#720,0.00145);
#521=EDGE_LOOP('',(#177));
#522=EDGE_LOOP('',(#178,#179,#180,#181));
#523=EDGE_LOOP('',(#182,#183,#184,#185,#186,#187,#188,#189,#190,#191,#192,
#193));
#524=EDGE_LOOP('',(#194,#195,#196,#197,#198));
#525=EDGE_LOOP('',(#199,#200,#201,#202,#203,#204));
#526=EDGE_LOOP('',(#205,#206,#207,#208));
#527=EDGE_LOOP('',(#209,#210,#211,#212));
#528=EDGE_LOOP('',(#213,#214,#215,#216));
#529=EDGE_LOOP('',(#217,#218,#219,#220));
#530=EDGE_LOOP('',(#221,#222,#223,#224,#225,#226));
#531=EDGE_LOOP('',(#227,#228,#229,#230,#231,#232,#233,#234,#235,#236,#237,
#238,#239,#240,#241,#242,#243,#244,#245,#246,#247,#248));
#532=EDGE_LOOP('',(#249,#250,#251,#252,#253));
#533=EDGE_LOOP('',(#254,#255,#256,#257));
#534=EDGE_LOOP('',(#258,#259,#260,#261,#262));
#535=EDGE_LOOP('',(#263,#264,#265,#266,#267));
#536=EDGE_LOOP('',(#268,#269,#270,#271));
#537=EDGE_LOOP('',(#272,#273,#274,#275,#276));
#538=EDGE_LOOP('',(#277,#278,#279,#280));
#539=EDGE_LOOP('',(#281,#282,#283,#284));
#540=EDGE_LOOP('',(#285,#286,#287,#288,#289));
#541=EDGE_LOOP('',(#290));
#542=EDGE_LOOP('',(#291));
#543=EDGE_LOOP('',(#292,#293,#294,#295));
#544=EDGE_LOOP('',(#296,#297,#298,#299));
#545=EDGE_LOOP('',(#300,#301,#302,#303,#304));
#546=EDGE_LOOP('',(#305,#306,#307,#308));
#547=EDGE_LOOP('',(#309,#310,#311,#312,#313));
#548=EDGE_LOOP('',(#314,#315,#316,#317));
#549=EDGE_LOOP('',(#318,#319,#320,#321,#322));
#550=EDGE_LOOP('',(#323,#324,#325,#326));
#551=EDGE_LOOP('',(#327,#328,#329,#330));
#552=EDGE_LOOP('',(#331,#332,#333,#334,#335));
#553=EDGE_LOOP('',(#336,#337,#338,#339,#340,#341,#342,#343,#344,#345,#346,
#347));
#554=EDGE_LOOP('',(#348,#349,#350,#351));
#555=EDGE_LOOP('',(#352));
#556=EDGE_LOOP('',(#353));
#557=EDGE_LOOP('',(#354));
#558=EDGE_LOOP('',(#355));
#559=EDGE_LOOP('',(#356,#357,#358,#359));
#560=EDGE_LOOP('',(#360));
#561=FACE_BOUND('',#521,.T.);
#562=FACE_BOUND('',#522,.T.);
#563=FACE_BOUND('',#523,.T.);
#564=FACE_BOUND('',#524,.T.);
#565=FACE_BOUND('',#525,.T.);
#566=FACE_BOUND('',#526,.T.);
#567=FACE_BOUND('',#527,.T.);
#568=FACE_BOUND('',#528,.T.);
#569=FACE_BOUND('',#529,.T.);
#570=FACE_BOUND('',#530,.T.);
#571=FACE_BOUND('',#531,.T.);
#572=FACE_BOUND('',#532,.T.);
#573=FACE_BOUND('',#533,.T.);
#574=FACE_BOUND('',#534,.T.);
#575=FACE_BOUND('',#535,.T.);
#576=FACE_BOUND('',#536,.T.);
#577=FACE_BOUND('',#537,.T.);
#578=FACE_BOUND('',#538,.T.);
#579=FACE_BOUND('',#539,.T.);
#580=FACE_BOUND('',#540,.T.);
#581=FACE_BOUND('',#541,.T.);
#582=FACE_BOUND('',#542,.T.);
#583=FACE_BOUND('',#543,.T.);
#584=FACE_BOUND('',#544,.T.);
#585=FACE_BOUND('',#545,.T.);
#586=FACE_BOUND('',#546,.T.);
#587=FACE_BOUND('',#547,.T.);
#588=FACE_BOUND('',#548,.T.);
#589=FACE_BOUND('',#549,.T.);
#590=FACE_BOUND('',#550,.T.);
#591=FACE_BOUND('',#551,.T.);
#592=FACE_BOUND('',#552,.T.);
#593=FACE_BOUND('',#553,.T.);
#594=FACE_BOUND('',#554,.T.);
#595=FACE_BOUND('',#555,.T.);
#596=FACE_BOUND('',#556,.T.);
#597=FACE_BOUND('',#557,.T.);
#598=FACE_BOUND('',#558,.T.);
#599=FACE_BOUND('',#559,.T.);
#600=FACE_BOUND('',#560,.T.);
#601=PLANE('',#674);
#602=PLANE('',#676);
#603=PLANE('',#677);
#604=PLANE('',#678);
#605=PLANE('',#680);
#606=PLANE('',#681);
#607=PLANE('',#692);
#608=PLANE('',#693);
#609=PLANE('',#694);
#610=PLANE('',#695);
#611=PLANE('',#696);
#612=PLANE('',#697);
#613=PLANE('',#698);
#614=PLANE('',#699);
#615=PLANE('',#700);
#616=PLANE('',#703);
#617=PLANE('',#704);
#618=PLANE('',#705);
#619=PLANE('',#706);
#620=PLANE('',#707);
#621=PLANE('',#708);
#622=PLANE('',#709);
#623=PLANE('',#710);
#624=PLANE('',#711);
#625=PLANE('',#712);
#626=PLANE('',#713);
#627=PLANE('',#717);
#628=PLANE('',#721);
#629=ADVANCED_FACE('',(#561),#601,.T.);
#630=ADVANCED_FACE('',(#562),#602,.F.);
#631=ADVANCED_FACE('',(#563),#603,.F.);
#632=ADVANCED_FACE('',(#564),#604,.T.);
#633=ADVANCED_FACE('',(#565,#566,#567,#568,#569),#605,.T.);
#634=ADVANCED_FACE('',(#570),#606,.F.);
#635=ADVANCED_FACE('',(#571),#15,.T.);
#636=ADVANCED_FACE('',(#572),#607,.T.);
#637=ADVANCED_FACE('',(#573),#608,.T.);
#638=ADVANCED_FACE('',(#574),#609,.F.);
#639=ADVANCED_FACE('',(#575),#610,.T.);
#640=ADVANCED_FACE('',(#576),#611,.T.);
#641=ADVANCED_FACE('',(#577),#612,.F.);
#642=ADVANCED_FACE('',(#578),#613,.F.);
#643=ADVANCED_FACE('',(#579),#614,.T.);
#644=ADVANCED_FACE('',(#580,#581,#582),#615,.T.);
#645=ADVANCED_FACE('',(#583),#616,.F.);
#646=ADVANCED_FACE('',(#584),#617,.F.);
#647=ADVANCED_FACE('',(#585),#618,.F.);
#648=ADVANCED_FACE('',(#586),#619,.F.);
#649=ADVANCED_FACE('',(#587),#620,.T.);
#650=ADVANCED_FACE('',(#588),#621,.T.);
#651=ADVANCED_FACE('',(#589),#622,.F.);
#652=ADVANCED_FACE('',(#590),#623,.T.);
#653=ADVANCED_FACE('',(#591),#624,.F.);
#654=ADVANCED_FACE('',(#592),#625,.T.);
#655=ADVANCED_FACE('',(#593),#626,.F.);
#656=ADVANCED_FACE('',(#594),#12,.F.);
#657=ADVANCED_FACE('',(#595,#596),#13,.F.);
#658=ADVANCED_FACE('',(#597,#598),#627,.T.);
#659=ADVANCED_FACE('',(#599),#14,.F.);
#660=ADVANCED_FACE('',(#600),#628,.T.);
#661=CLOSED_SHELL('',(#629,#630,#631,#632,#633,#634,#635,#636,#637,#638,
#639,#640,#641,#642,#643,#644,#645,#646,#647,#648,#649,#650,#651,#652,#653,
#654,#655,#656,#657,#658,#659,#660));
#662=STYLED_ITEM('',(#663),#670);
#663=PRESENTATION_STYLE_ASSIGNMENT((#664));
#664=SURFACE_STYLE_USAGE(.BOTH.,#665);
#665=SURFACE_SIDE_STYLE('',(#666));
#666=SURFACE_STYLE_FILL_AREA(#667);
#667=FILL_AREA_STYLE('',(#668));
#668=FILL_AREA_STYLE_COLOUR('',#669);
#669=COLOUR_RGB('',0.768627450980392,0.886274509803922,0.952941176470588);
#670=MANIFOLD_SOLID_BREP('Part 1',#661);
#671=SHAPE_DEFINITION_REPRESENTATION(#1109,#672);
#672=SHAPE_REPRESENTATION('Part 1',(#673),#1104);
#673=AXIS2_PLACEMENT_3D('',#895,#722,#723);
#674=AXIS2_PLACEMENT_3D('',#896,#724,#725);
#675=AXIS2_PLACEMENT_3D('',#897,#726,#727);
#676=AXIS2_PLACEMENT_3D('',#899,#728,#729);
#677=AXIS2_PLACEMENT_3D('',#908,#734,#735);
#678=AXIS2_PLACEMENT_3D('',#930,#747,#748);
#679=AXIS2_PLACEMENT_3D('',#935,#751,#752);
#680=AXIS2_PLACEMENT_3D('',#936,#753,#754);
#681=AXIS2_PLACEMENT_3D('',#976,#775,#776);
#682=AXIS2_PLACEMENT_3D('',#981,#779,#780);
#683=AXIS2_PLACEMENT_3D('',#1004,#781,#782);
#684=AXIS2_PLACEMENT_3D('',#1008,#784,#785);
#685=AXIS2_PLACEMENT_3D('',#1009,#786,#787);
#686=AXIS2_PLACEMENT_3D('',#1013,#789,#790);
#687=AXIS2_PLACEMENT_3D('',#1016,#792,#793);
#688=AXIS2_PLACEMENT_3D('',#1020,#795,#796);
#689=AXIS2_PLACEMENT_3D('',#1024,#798,#799);
#690=AXIS2_PLACEMENT_3D('',#1028,#801,#802);
#691=AXIS2_PLACEMENT_3D('',#1032,#804,#805);
#692=AXIS2_PLACEMENT_3D('',#1035,#807,#808);
#693=AXIS2_PLACEMENT_3D('',#1038,#811,#812);
#694=AXIS2_PLACEMENT_3D('',#1040,#814,#815);
#695=AXIS2_PLACEMENT_3D('',#1042,#817,#818);
#696=AXIS2_PLACEMENT_3D('',#1045,#821,#822);
#697=AXIS2_PLACEMENT_3D('',#1047,#824,#825);
#698=AXIS2_PLACEMENT_3D('',#1049,#827,#828);
#699=AXIS2_PLACEMENT_3D('',#1051,#830,#831);
#700=AXIS2_PLACEMENT_3D('',#1055,#834,#835);
#701=AXIS2_PLACEMENT_3D('',#1057,#837,#838);
#702=AXIS2_PLACEMENT_3D('',#1059,#839,#840);
#703=AXIS2_PLACEMENT_3D('',#1061,#841,#842);
#704=AXIS2_PLACEMENT_3D('',#1062,#843,#844);
#705=AXIS2_PLACEMENT_3D('',#1063,#845,#846);
#706=AXIS2_PLACEMENT_3D('',#1068,#850,#851);
#707=AXIS2_PLACEMENT_3D('',#1072,#854,#855);
#708=AXIS2_PLACEMENT_3D('',#1075,#858,#859);
#709=AXIS2_PLACEMENT_3D('',#1076,#860,#861);
#710=AXIS2_PLACEMENT_3D('',#1081,#865,#866);
#711=AXIS2_PLACEMENT_3D('',#1083,#868,#869);
#712=AXIS2_PLACEMENT_3D('',#1087,#872,#873);
#713=AXIS2_PLACEMENT_3D('',#1089,#875,#876);
#714=AXIS2_PLACEMENT_3D('',#1090,#877,#878);
#715=AXIS2_PLACEMENT_3D('',#1093,#880,#881);
#716=AXIS2_PLACEMENT_3D('',#1094,#882,#883);
#717=AXIS2_PLACEMENT_3D('',#1095,#884,#885);
#718=AXIS2_PLACEMENT_3D('',#1096,#886,#887);
#719=AXIS2_PLACEMENT_3D('',#1098,#888,#889);
#720=AXIS2_PLACEMENT_3D('',#1101,#891,#892);
#721=AXIS2_PLACEMENT_3D('',#1102,#893,#894);
#722=DIRECTION('',(0.,0.,1.));
#723=DIRECTION('',(1.,0.,0.));
#724=DIRECTION('',(0.,0.,1.));
#725=DIRECTION('',(1.,0.,0.));
#726=DIRECTION('',(0.,0.,1.));
#727=DIRECTION('',(1.,0.,0.));
#728=DIRECTION('',(1.,0.,0.));
#729=DIRECTION('',(0.,0.,1.));
#730=DIRECTION('',(0.,1.,0.));
#731=DIRECTION('',(0.,0.,1.));
#732=DIRECTION('',(0.,1.,0.));
#733=DIRECTION('',(0.,0.,1.));
#734=DIRECTION('',(0.,1.,0.));
#735=DIRECTION('',(0.,0.,1.));
#736=DIRECTION('',(0.,0.,1.));
#737=DIRECTION('',(1.,0.,0.));
#738=DIRECTION('',(0.,0.,1.));
#739=DIRECTION('',(1.,0.,0.));
#740=DIRECTION('',(0.,0.,1.));
#741=DIRECTION('',(1.,0.,0.));
#742=DIRECTION('',(0.,0.,1.));
#743=DIRECTION('',(1.,0.,0.));
#744=DIRECTION('',(0.,0.,1.));
#745=DIRECTION('',(1.,0.,0.));
#746=DIRECTION('',(1.,0.,0.));
#747=DIRECTION('',(0.,0.,1.));
#748=DIRECTION('',(1.,0.,0.));
#749=DIRECTION('',(0.,1.,0.));
#750=DIRECTION('',(1.,0.,0.));
#751=DIRECTION('',(1.64399090630379E-15,-1.99572926652818E-15,-1.));
#752=DIRECTION('',(0.999999999999987,-1.61982631386848E-7,0.));
#753=DIRECTION('',(0.,1.,0.));
#754=DIRECTION('',(0.,0.,1.));
#755=DIRECTION('',(0.,0.,1.));
#756=DIRECTION('',(1.,0.,0.));
#757=DIRECTION('',(0.,0.,1.));
#758=DIRECTION('',(1.,0.,0.));
#759=DIRECTION('',(1.,0.,0.));
#760=DIRECTION('',(0.,0.,1.));
#761=DIRECTION('',(1.,0.,0.));
#762=DIRECTION('',(0.,0.,1.));
#763=DIRECTION('',(1.,0.,0.));
#764=DIRECTION('',(0.,0.,1.));
#765=DIRECTION('',(1.,0.,0.));
#766=DIRECTION('',(0.,0.,1.));
#767=DIRECTION('',(1.,0.,0.));
#768=DIRECTION('',(0.,0.,1.));
#769=DIRECTION('',(1.,0.,0.));
#770=DIRECTION('',(0.,0.,1.));
#771=DIRECTION('',(1.,0.,0.));
#772=DIRECTION('',(0.,0.,1.));
#773=DIRECTION('',(1.,0.,0.));
#774=DIRECTION('',(0.,0.,1.));
#775=DIRECTION('',(0.,0.,1.));
#776=DIRECTION('',(1.,0.,0.));
#777=DIRECTION('',(0.,-1.,0.));
#778=DIRECTION('',(1.,0.,0.));
#779=DIRECTION('',(0.,-1.06969550741233E-15,-1.));
#780=DIRECTION('',(1.,-7.49266111821292E-11,0.));
#781=DIRECTION('',(-1.31495961997558E-14,7.59192290566228E-15,-1.));
#782=DIRECTION('',(0.999999999998928,1.46420847266631E-6,0.));
#783=DIRECTION('',(0.,0.,1.));
#784=DIRECTION('',(0.,0.,-1.));
#785=DIRECTION('',(0.999999999998928,1.46420857991224E-6,0.));
#786=DIRECTION('',(0.,0.,-1.));
#787=DIRECTION('',(0.999999999998928,1.46420847266631E-6,0.));
#788=DIRECTION('',(0.,0.,1.));
#789=DIRECTION('',(-1.31495961997559E-14,7.5919229056623E-15,-1.));
#790=DIRECTION('',(0.999999999998928,1.46420857991224E-6,0.));
#791=DIRECTION('',(0.,0.,1.));
#792=DIRECTION('',(0.,0.,-1.));
#793=DIRECTION('',(0.999999999998928,-1.46438429975069E-6,0.));
#794=DIRECTION('',(0.,0.,1.));
#795=DIRECTION('',(-1.31495961997009E-14,-7.59192290563166E-15,-1.));
#796=DIRECTION('',(0.999999999998928,-1.46438433960111E-6,0.));
#797=DIRECTION('',(0.,0.,1.));
#798=DIRECTION('',(0.,0.,-1.));
#799=DIRECTION('',(0.999999999998928,-1.46438429975069E-6,0.));
#800=DIRECTION('',(0.,0.,1.));
#801=DIRECTION('',(0.,0.,-1.));
#802=DIRECTION('',(0.999999999998928,-1.46438433960111E-6,0.));
#803=DIRECTION('',(0.,0.,1.));
#804=DIRECTION('',(0.,0.,-1.));
#805=DIRECTION('',(1.,7.19500937530313E-8,0.));
#806=DIRECTION('',(0.,0.,1.));
#807=DIRECTION('',(0.,0.,1.));
#808=DIRECTION('',(1.,0.,0.));
#809=DIRECTION('',(0.,-1.,0.));
#810=DIRECTION('',(0.,1.,0.));
#811=DIRECTION('',(1.,0.,0.));
#812=DIRECTION('',(0.,0.,1.));
#813=DIRECTION('',(0.,1.,0.));
#814=DIRECTION('',(0.,0.,1.));
#815=DIRECTION('',(1.,0.,0.));
#816=DIRECTION('',(0.,-1.,0.));
#817=DIRECTION('',(0.,0.,1.));
#818=DIRECTION('',(1.,0.,0.));
#819=DIRECTION('',(0.,-1.,0.));
#820=DIRECTION('',(0.,1.,0.));
#821=DIRECTION('',(1.,0.,0.));
#822=DIRECTION('',(0.,0.,1.));
#823=DIRECTION('',(0.,1.,0.));
#824=DIRECTION('',(0.,0.,1.));
#825=DIRECTION('',(1.,0.,0.));
#826=DIRECTION('',(0.,-1.,0.));
#827=DIRECTION('',(1.,0.,0.));
#828=DIRECTION('',(0.,0.,1.));
#829=DIRECTION('',(0.,-1.,0.));
#830=DIRECTION('',(1.,0.,0.));
#831=DIRECTION('',(0.,0.,1.));
#832=DIRECTION('',(0.,0.,1.));
#833=DIRECTION('',(0.,1.,0.));
#834=DIRECTION('',(0.,0.,1.));
#835=DIRECTION('',(1.,0.,0.));
#836=DIRECTION('',(1.,0.,0.));
#837=DIRECTION('',(0.,0.,1.));
#838=DIRECTION('',(1.,0.,0.));
#839=DIRECTION('',(0.,0.,1.));
#840=DIRECTION('',(1.,0.,0.));
#841=DIRECTION('',(1.,0.,0.));
#842=DIRECTION('',(0.,0.,1.));
#843=DIRECTION('',(1.,0.,0.));
#844=DIRECTION('',(0.,0.,1.));
#845=DIRECTION('',(0.,0.,1.));
#846=DIRECTION('',(1.,0.,0.));
#847=DIRECTION('',(0.,-1.,0.));
#848=DIRECTION('',(1.,0.,0.));
#849=DIRECTION('',(0.,1.,0.));
#850=DIRECTION('',(1.,0.,0.));
#851=DIRECTION('',(0.,0.,1.));
#852=DIRECTION('',(0.,1.,0.));
#853=DIRECTION('',(0.,0.,1.));
#854=DIRECTION('',(0.,0.,1.));
#855=DIRECTION('',(1.,0.,0.));
#856=DIRECTION('',(0.,-1.,0.));
#857=DIRECTION('',(1.,0.,0.));
#858=DIRECTION('',(1.,0.,0.));
#859=DIRECTION('',(0.,0.,1.));
#860=DIRECTION('',(0.,0.,1.));
#861=DIRECTION('',(1.,0.,0.));
#862=DIRECTION('',(0.,-1.,0.));
#863=DIRECTION('',(1.,0.,0.));
#864=DIRECTION('',(0.,1.,0.));
#865=DIRECTION('',(1.,0.,0.));
#866=DIRECTION('',(0.,0.,1.));
#867=DIRECTION('',(0.,-1.,0.));
#868=DIRECTION('',(1.,0.,0.));
#869=DIRECTION('',(0.,0.,1.));
#870=DIRECTION('',(0.,1.,0.));
#871=DIRECTION('',(0.,0.,1.));
#872=DIRECTION('',(0.,0.,1.));
#873=DIRECTION('',(1.,0.,0.));
#874=DIRECTION('',(1.,0.,0.));
#875=DIRECTION('',(0.,1.,0.));
#876=DIRECTION('',(0.,0.,1.));
#877=DIRECTION('',(0.,0.,1.));
#878=DIRECTION('',(1.,0.,0.));
#879=DIRECTION('',(0.,0.,1.));
#880=DIRECTION('',(0.,0.,1.));
#881=DIRECTION('',(1.,0.,0.));
#882=DIRECTION('',(0.,0.,1.));
#883=DIRECTION('',(1.,0.,0.));
#884=DIRECTION('',(0.,0.,1.));
#885=DIRECTION('',(1.,0.,0.));
#886=DIRECTION('',(0.,0.,1.));
#887=DIRECTION('',(1.,0.,0.));
#888=DIRECTION('',(0.,0.,1.));
#889=DIRECTION('',(1.,0.,0.));
#890=DIRECTION('',(0.,0.,1.));
#891=DIRECTION('',(0.,0.,1.));
#892=DIRECTION('',(1.,0.,0.));
#893=DIRECTION('',(0.,0.,1.));
#894=DIRECTION('',(1.,0.,0.));
#895=CARTESIAN_POINT('',(0.,0.,0.));
#896=CARTESIAN_POINT('',(0.012,0.0025,-0.011));
#897=CARTESIAN_POINT('',(0.012,0.0025,-0.011));
#898=CARTESIAN_POINT('',(0.0142,0.0025,-0.011));
#899=CARTESIAN_POINT('',(-0.016,-0.0085,-0.055));
#900=CARTESIAN_POINT('',(-0.016,-0.0105,-0.019));
#901=CARTESIAN_POINT('',(-0.016,0.0085,-0.019));
#902=CARTESIAN_POINT('',(-0.016,-0.0085,-0.019));
#903=CARTESIAN_POINT('',(-0.016,0.0085,-0.055));
#904=CARTESIAN_POINT('',(-0.016,0.0085,-0.055));
#905=CARTESIAN_POINT('',(-0.016,-0.0085,-0.055));
#906=CARTESIAN_POINT('',(-0.016,-0.0085,-0.055));
#907=CARTESIAN_POINT('',(-0.016,-0.0085,-0.055));
#908=CARTESIAN_POINT('',(-0.016,-0.0085,-0.055));
#909=CARTESIAN_POINT('',(-0.013,-0.0085,-0.055));
#910=CARTESIAN_POINT('',(-0.013,-0.00850000000000025,-0.0525));
#911=CARTESIAN_POINT('',(-0.013,-0.0085,-0.055));
#912=CARTESIAN_POINT('',(-0.014,-0.0085,-0.0525));
#913=CARTESIAN_POINT('',(-0.014,-0.0085,-0.0525));
#914=CARTESIAN_POINT('',(-0.014,-0.0085,-0.0525));
#915=CARTESIAN_POINT('',(-0.014,-0.0085,-0.0405));
#916=CARTESIAN_POINT('',(-0.016,-0.0085,-0.0405));
#917=CARTESIAN_POINT('',(-0.013,-0.00850000000000025,-0.0405));
#918=CARTESIAN_POINT('',(-0.013,-0.0085,-0.055));
#919=CARTESIAN_POINT('',(-0.013,-0.00850000000000025,-0.0325));
#920=CARTESIAN_POINT('',(-0.014,-0.0085,-0.0325));
#921=CARTESIAN_POINT('',(-0.014,-0.0085,-0.0325));
#922=CARTESIAN_POINT('',(-0.014,-0.0085,-0.0325));
#923=CARTESIAN_POINT('',(-0.014,-0.0085,-0.0205));
#924=CARTESIAN_POINT('',(-0.016,-0.0085,-0.0205));
#925=CARTESIAN_POINT('',(-0.013,-0.00850000000000025,-0.0205));
#926=CARTESIAN_POINT('',(-0.013,-0.0085,-0.055));
#927=CARTESIAN_POINT('',(-0.013,-0.00850000000000025,-0.019));
#928=CARTESIAN_POINT('',(-0.017,-0.0085,-0.019));
#929=CARTESIAN_POINT('',(-0.016,-0.0085,-0.055));
#930=CARTESIAN_POINT('',(-0.017,-0.0105,-0.019));
#931=CARTESIAN_POINT('',(-0.006,-0.0105,-0.019));
#932=CARTESIAN_POINT('',(-0.006,-0.002733718702665,-0.019));
#933=CARTESIAN_POINT('',(-0.006,0.0085,-0.019));
#934=CARTESIAN_POINT('',(-0.016,0.0085,-0.019));
#935=CARTESIAN_POINT('',(9.44219206178415E-9,-0.00850000145517931,-0.019));
#936=CARTESIAN_POINT('',(-0.016,0.0085,-0.055));
#937=CARTESIAN_POINT('',(0.016,0.0085,-0.055));
#938=CARTESIAN_POINT('',(0.016,0.0085,-0.055));
#939=CARTESIAN_POINT('',(0.016,0.0085,0.));
#940=CARTESIAN_POINT('',(-0.016,0.0085,-0.055));
#941=CARTESIAN_POINT('',(-0.006,0.0085,-0.019));
#942=CARTESIAN_POINT('',(-0.006,0.0085,1.50000000267991E-10));
#943=CARTESIAN_POINT('',(-0.016,0.0085,0.));
#944=CARTESIAN_POINT('',(-0.014,0.0085,-0.0405));
#945=CARTESIAN_POINT('',(-0.014,0.0085,-0.0405));
#946=CARTESIAN_POINT('',(-0.011,0.0085,-0.0405));
#947=CARTESIAN_POINT('',(-0.014,0.0085,-0.055));
#948=CARTESIAN_POINT('',(-0.014,0.0085,-0.0525));
#949=CARTESIAN_POINT('',(-0.016,0.0085,-0.0525));
#950=CARTESIAN_POINT('',(-0.011,0.0085,-0.0525));
#951=CARTESIAN_POINT('',(-0.011,0.0085,-0.0525));
#952=CARTESIAN_POINT('',(-0.014,0.0085,-0.0205));
#953=CARTESIAN_POINT('',(-0.014,0.0085,-0.0205));
#954=CARTESIAN_POINT('',(-0.011,0.0085,-0.0205));
#955=CARTESIAN_POINT('',(-0.014,0.0085,-0.055));
#956=CARTESIAN_POINT('',(-0.014,0.0085,-0.0325));
#957=CARTESIAN_POINT('',(-0.016,0.0085,-0.0325));
#958=CARTESIAN_POINT('',(-0.011,0.0085,-0.0325));
#959=CARTESIAN_POINT('',(-0.011,0.0085,-0.0325));
#960=CARTESIAN_POINT('',(0.011,0.0085,-0.0405));
#961=CARTESIAN_POINT('',(0.011,0.0085,-0.0405));
#962=CARTESIAN_POINT('',(0.014,0.0085,-0.0405));
#963=CARTESIAN_POINT('',(0.011,0.0085,-0.055));
#964=CARTESIAN_POINT('',(0.011,0.0085,-0.0525));
#965=CARTESIAN_POINT('',(-0.016,0.0085,-0.0525));
#966=CARTESIAN_POINT('',(0.014,0.0085,-0.0525));
#967=CARTESIAN_POINT('',(0.014,0.0085,-0.0525));
#968=CARTESIAN_POINT('',(0.011,0.0085,-0.0205));
#969=CARTESIAN_POINT('',(0.011,0.0085,-0.0205));
#970=CARTESIAN_POINT('',(0.014,0.0085,-0.0205));
#971=CARTESIAN_POINT('',(0.011,0.0085,-0.055));
#972=CARTESIAN_POINT('',(0.011,0.0085,-0.0325));
#973=CARTESIAN_POINT('',(-0.016,0.0085,-0.0325));
#974=CARTESIAN_POINT('',(0.014,0.0085,-0.0325));
#975=CARTESIAN_POINT('',(0.014,0.0085,-0.0325));
#976=CARTESIAN_POINT('',(-0.016,-0.0085,-0.055));
#977=CARTESIAN_POINT('',(0.016,-0.0085,-0.055));
#978=CARTESIAN_POINT('',(0.016,-0.0085,-0.055));
#979=CARTESIAN_POINT('',(-0.016,-0.0085,-0.055));
#980=CARTESIAN_POINT('',(0.013,-0.0085,-0.055));
#981=CARTESIAN_POINT('',(5.2890373895085E-19,-0.00849999998694729,-0.055));
#982=CARTESIAN_POINT('',(0.013,-0.0085,1.49999998533268E-10));
#983=CARTESIAN_POINT('',(0.013,-0.0085,-0.055));
#984=CARTESIAN_POINT('',(0.013,-0.00764915198965275,1.49999998533268E-10));
#985=CARTESIAN_POINT('',(0.013,-0.00764915198965275,-0.055));
#986=CARTESIAN_POINT('',(0.0123231143305666,-0.00594785261563555,1.49999998533268E-10));
#987=CARTESIAN_POINT('',(0.0123231143305666,-0.00594785261563555,-0.055));
#988=CARTESIAN_POINT('',(0.0094317033788972,-0.00378413399855779,1.49999998533268E-10));
#989=CARTESIAN_POINT('',(0.0094317033788972,-0.00378413399855779,-0.055));
#990=CARTESIAN_POINT('',(0.00510440108639476,-0.00233844692385767,1.49999998533268E-10));
#991=CARTESIAN_POINT('',(0.00510440108639476,-0.00233844692385767,-0.055));
#992=CARTESIAN_POINT('',(-2.62337990304359E-16,-0.00183077653807114,1.49999998533268E-10));
#993=CARTESIAN_POINT('',(-2.62337990304359E-16,-0.00183077653807114,-0.055));
#994=CARTESIAN_POINT('',(-0.00510440108639521,-0.00233844692385776,1.49999998533268E-10));
#995=CARTESIAN_POINT('',(-0.00510440108639521,-0.00233844692385776,-0.055));
#996=CARTESIAN_POINT('',(-0.00943170337889756,-0.00378413399855797,1.49999998533268E-10));
#997=CARTESIAN_POINT('',(-0.00943170337889756,-0.00378413399855797,-0.055));
#998=CARTESIAN_POINT('',(-0.0123231143305668,-0.00594785261563579,1.49999998533268E-10));
#999=CARTESIAN_POINT('',(-0.0123231143305668,-0.00594785261563579,-0.055));
#1000=CARTESIAN_POINT('',(-0.0130000000000001,-0.00764915198965301,1.49999998533268E-10));
#1001=CARTESIAN_POINT('',(-0.0130000000000001,-0.00764915198965301,-0.055));
#1002=CARTESIAN_POINT('',(-0.013,-0.00850000000000025,1.49999998533268E-10));
#1003=CARTESIAN_POINT('',(-0.013,-0.00850000000000025,-0.055));
#1004=CARTESIAN_POINT('',(-1.40477470824448E-7,-0.0084999857754983,-0.0205));
#1005=CARTESIAN_POINT('',(-0.011,-0.005035898384862,-0.0205));
#1006=CARTESIAN_POINT('',(-0.011,-0.005035898384862,-0.0325));
#1007=CARTESIAN_POINT('',(-0.011,-0.005035898384862,-0.0325));
#1008=CARTESIAN_POINT('',(-1.40477475840519E-7,-0.00849998577549721,-0.0325));
#1009=CARTESIAN_POINT('',(-1.40477470824448E-7,-0.0084999857754983,-0.0405));
#1010=CARTESIAN_POINT('',(-0.011,-0.005035898384862,-0.0405));
#1011=CARTESIAN_POINT('',(-0.011,-0.005035898384862,-0.0525));
#1012=CARTESIAN_POINT('',(-0.011,-0.005035898384862,-0.0525));
#1013=CARTESIAN_POINT('',(-1.40477475840519E-7,-0.00849998577549721,-0.0525));
#1014=CARTESIAN_POINT('',(0.013,-0.0085,-0.055));
#1015=CARTESIAN_POINT('',(0.013,-0.0085,-0.0525));
#1016=CARTESIAN_POINT('',(1.40492592396952E-7,-0.00849998577376495,-0.0525));
#1017=CARTESIAN_POINT('',(0.011,-0.005035898384862,-0.0525));
#1018=CARTESIAN_POINT('',(0.011,-0.005035898384862,-0.0525));
#1019=CARTESIAN_POINT('',(0.011,-0.005035898384862,-0.0405));
#1020=CARTESIAN_POINT('',(1.4049260351649E-7,-0.00849998577376464,-0.0405));
#1021=CARTESIAN_POINT('',(0.013,-0.0085,-0.0405));
#1022=CARTESIAN_POINT('',(0.013,-0.0085,-0.055));
#1023=CARTESIAN_POINT('',(0.013,-0.0085,-0.0325));
#1024=CARTESIAN_POINT('',(1.40492592396952E-7,-0.00849998577376495,-0.0325));
#1025=CARTESIAN_POINT('',(0.011,-0.005035898384862,-0.0325));
#1026=CARTESIAN_POINT('',(0.011,-0.005035898384862,-0.0325));
#1027=CARTESIAN_POINT('',(0.011,-0.005035898384862,-0.0205));
#1028=CARTESIAN_POINT('',(1.4049260351649E-7,-0.00849998577376464,-0.0205));
#1029=CARTESIAN_POINT('',(0.013,-0.0085,-0.0205));
#1030=CARTESIAN_POINT('',(0.013,-0.0085,-0.055));
#1031=CARTESIAN_POINT('',(0.013,-0.0085,0.));
#1032=CARTESIAN_POINT('',(-1.34799389744162E-9,-0.00850000076657233,0.));
#1033=CARTESIAN_POINT('',(-0.006,-0.00273371869891025,1.50000000267991E-10));
#1034=CARTESIAN_POINT('',(-0.006,-0.002733718702665,-0.019));
#1035=CARTESIAN_POINT('',(-0.014,-0.0105,-0.0525));
#1036=CARTESIAN_POINT('',(-0.014,-0.0105,-0.0525));
#1037=CARTESIAN_POINT('',(-0.011,-0.0105,-0.0525));
#1038=CARTESIAN_POINT('',(-0.014,-0.0105,-0.0525));
#1039=CARTESIAN_POINT('',(-0.014,-0.0105,-0.0405));
#1040=CARTESIAN_POINT('',(-0.014,-0.0105,-0.0405));
#1041=CARTESIAN_POINT('',(-0.011,-0.0105,-0.0405));
#1042=CARTESIAN_POINT('',(-0.014,-0.0105,-0.0325));
#1043=CARTESIAN_POINT('',(-0.014,-0.0105,-0.0325));
#1044=CARTESIAN_POINT('',(-0.011,-0.0105,-0.0325));
#1045=CARTESIAN_POINT('',(-0.014,-0.0105,-0.0325));
#1046=CARTESIAN_POINT('',(-0.014,-0.0105,-0.0205));
#1047=CARTESIAN_POINT('',(-0.014,-0.0105,-0.0205));
#1048=CARTESIAN_POINT('',(-0.011,-0.0105,-0.0205));
#1049=CARTESIAN_POINT('',(-0.006,-0.0105,-0.019));
#1050=CARTESIAN_POINT('',(-0.006,-0.0105,3.00000000535982E-10));
#1051=CARTESIAN_POINT('',(0.016,-0.0085,-0.055));
#1052=CARTESIAN_POINT('',(0.016,-0.0085,-0.055));
#1053=CARTESIAN_POINT('',(0.016,-0.0085,0.));
#1054=CARTESIAN_POINT('',(0.016,-0.0085,0.));
#1055=CARTESIAN_POINT('',(-0.016,-0.0085,0.));
#1056=CARTESIAN_POINT('',(-0.016,-0.0085,0.));
#1057=CARTESIAN_POINT('',(0.0015,0.0025,0.));
#1058=CARTESIAN_POINT('',(0.0035,0.0025,0.));
#1059=CARTESIAN_POINT('',(0.012,0.0025,0.));
#1060=CARTESIAN_POINT('',(0.0142,0.0025,0.));
#1061=CARTESIAN_POINT('',(-0.011,-0.0105,-0.0525));
#1062=CARTESIAN_POINT('',(-0.011,-0.0105,-0.0325));
#1063=CARTESIAN_POINT('',(0.011,-0.0105,-0.0405));
#1064=CARTESIAN_POINT('',(0.014,-0.0105,-0.0405));
#1065=CARTESIAN_POINT('',(0.014,-0.0085,-0.0405));
#1066=CARTESIAN_POINT('',(-0.016,-0.0085,-0.0405));
#1067=CARTESIAN_POINT('',(0.011,-0.0105,-0.0405));
#1068=CARTESIAN_POINT('',(0.014,-0.0105,-0.0525));
#1069=CARTESIAN_POINT('',(0.014,-0.0105,-0.0525));
#1070=CARTESIAN_POINT('',(0.014,-0.0085,-0.0525));
#1071=CARTESIAN_POINT('',(0.014,-0.0085,-0.055));
#1072=CARTESIAN_POINT('',(0.011,-0.0105,-0.0525));
#1073=CARTESIAN_POINT('',(0.011,-0.0105,-0.0525));
#1074=CARTESIAN_POINT('',(0.011,-0.0085,-0.0525));
#1075=CARTESIAN_POINT('',(0.011,-0.0105,-0.0525));
#1076=CARTESIAN_POINT('',(0.011,-0.0105,-0.0205));
#1077=CARTESIAN_POINT('',(0.014,-0.0105,-0.0205));
#1078=CARTESIAN_POINT('',(0.014,-0.0085,-0.0205));
#1079=CARTESIAN_POINT('',(-0.016,-0.0085,-0.0205));
#1080=CARTESIAN_POINT('',(0.011,-0.0105,-0.0205));
#1081=CARTESIAN_POINT('',(0.011,-0.0105,-0.0325));
#1082=CARTESIAN_POINT('',(0.011,-0.0105,-0.0325));
#1083=CARTESIAN_POINT('',(0.014,-0.0105,-0.0325));
#1084=CARTESIAN_POINT('',(0.014,-0.0105,-0.0325));
#1085=CARTESIAN_POINT('',(0.014,-0.0085,-0.0325));
#1086=CARTESIAN_POINT('',(0.014,-0.0085,-0.055));
#1087=CARTESIAN_POINT('',(0.011,-0.0105,-0.0325));
#1088=CARTESIAN_POINT('',(0.011,-0.0085,-0.0325));
#1089=CARTESIAN_POINT('',(-0.016,-0.0085,-0.055));
#1090=CARTESIAN_POINT('',(0.0015,0.0025,-0.005));
#1091=CARTESIAN_POINT('',(0.0035,0.0025,-0.005));
#1092=CARTESIAN_POINT('',(0.0035,0.0025,-0.005));
#1093=CARTESIAN_POINT('',(0.0015,0.0025,-0.005));
#1094=CARTESIAN_POINT('',(0.012,0.0025,-0.011));
#1095=CARTESIAN_POINT('',(0.0015,0.0025,-0.005));
#1096=CARTESIAN_POINT('',(0.0015,0.0025,-0.005));
#1097=CARTESIAN_POINT('',(0.00295,0.0025,-0.005));
#1098=CARTESIAN_POINT('',(0.0015,0.0025,-0.026));
#1099=CARTESIAN_POINT('',(0.00295,0.0025,-0.026));
#1100=CARTESIAN_POINT('',(0.00295,0.0025,-0.026));
#1101=CARTESIAN_POINT('',(0.0015,0.0025,-0.026));
#1102=CARTESIAN_POINT('',(0.0015,0.0025,-0.026));
#1103=MECHANICAL_DESIGN_GEOMETRIC_PRESENTATION_REPRESENTATION('',(#662),
#1104);
#1104=(
GEOMETRIC_REPRESENTATION_CONTEXT(3)
GLOBAL_UNCERTAINTY_ASSIGNED_CONTEXT((#1105))
GLOBAL_UNIT_ASSIGNED_CONTEXT((#1108,#1107,#1106))
REPRESENTATION_CONTEXT('Part 1','TOP_LEVEL_ASSEMBLY_PART')
);
#1105=UNCERTAINTY_MEASURE_WITH_UNIT(LENGTH_MEASURE(2.E-5),#1108,
'DISTANCE_ACCURACY_VALUE','Maximum Tolerance applied to model');
#1106=(
NAMED_UNIT(*)
SI_UNIT($,.STERADIAN.)
SOLID_ANGLE_UNIT()
);
#1107=(
NAMED_UNIT(*)
PLANE_ANGLE_UNIT()
SI_UNIT($,.RADIAN.)
);
#1108=(
LENGTH_UNIT()
NAMED_UNIT(*)
SI_UNIT($,.METRE.)
);
#1109=PRODUCT_DEFINITION_SHAPE('','',#1110);
#1110=PRODUCT_DEFINITION('','',#1112,#1111);
#1111=PRODUCT_DEFINITION_CONTEXT('',#1118,'design');
#1112=PRODUCT_DEFINITION_FORMATION_WITH_SPECIFIED_SOURCE('','',#1114,
 .NOT_KNOWN.);
#1113=PRODUCT_RELATED_PRODUCT_CATEGORY('','',(#1114));
#1114=PRODUCT('Part 1','Part 1','Part 1',(#1116));
#1115=PRODUCT_CATEGORY('','');
#1116=PRODUCT_CONTEXT('',#1118,'mechanical');
#1117=APPLICATION_PROTOCOL_DEFINITION('international standard',
'ap242_managed_model_based_3d_engineering',2020,#1118);
#1118=APPLICATION_CONTEXT('managed model based 3d engineering');
ENDSEC;
END-ISO-10303-21;
