ISO-10303-21;
HEADER;
/* Generated by software containing ST-Developer
 * from STEP Tools, Inc. (www.steptools.com) 
 */
/* OPTION: using custom renumber hook */

FILE_DESCRIPTION(
/* description */ ('STEP AP242 Edition 2',
'CAx-IF Rec.Pracs.---Representation and Presentation of Product Manufa
cturing Information (PMI)---4.0---2014-10-13',
'CAx-IF Rec.Pracs.---3D Tessellated Geometry---0.4---2014-09-14','2;1',
'CAx-IF Rec.Pracs.---User Defined Attributes---1.5---2016-08-15'),
/* implementation_level */ '2;1');

FILE_NAME(
/* name */ 'L bracket - L bracket',
/* time_stamp */ '2026-09-28T21:19:29Z',
/* author */ (''),
/* organization */ (''),
/* preprocessor_version */ 'ST-DEVELOPER v20',
/* originating_system */ 'ONSHAPE BY PTC INC, 1.221',
/* authorisation */ '  ');

FILE_SCHEMA (('AP242_MANAGED_MODEL_BASED_3D_ENGINEERING_MIM_LF { 1 0 10303 442 3 1 4 }'));
ENDSEC;

DATA;
#10=SHAPE_REPRESENTATION_RELATIONSHIP('','',#525,#11);
#11=ADVANCED_BREP_SHAPE_REPRESENTATION('',(#523),#879);
#12=LINE('',#757,#48);
#13=LINE('',#762,#49);
#14=LINE('',#766,#50);
#15=LINE('',#770,#51);
#16=LINE('',#774,#52);
#17=LINE('',#778,#53);
#18=LINE('',#781,#54);
#19=LINE('',#784,#55);
#20=LINE('',#786,#56);
#21=LINE('',#788,#57);
#22=LINE('',#800,#58);
#23=LINE('',#805,#59);
#24=LINE('',#809,#60);
#25=LINE('',#813,#61);
#26=LINE('',#817,#62);
#27=LINE('',#821,#63);
#28=LINE('',#824,#64);
#29=LINE('',#827,#65);
#30=LINE('',#829,#66);
#31=LINE('',#831,#67);
#32=LINE('',#833,#68);
#33=LINE('',#834,#69);
#34=LINE('',#836,#70);
#35=LINE('',#837,#71);
#36=LINE('',#839,#72);
#37=LINE('',#840,#73);
#38=LINE('',#842,#74);
#39=LINE('',#844,#75);
#40=LINE('',#845,#76);
#41=LINE('',#847,#77);
#42=LINE('',#848,#78);
#43=LINE('',#851,#79);
#44=LINE('',#857,#80);
#45=LINE('',#858,#81);
#46=LINE('',#860,#82);
#47=LINE('',#862,#83);
#48=VECTOR('',#610,1.);
#49=VECTOR('',#613,1.);
#50=VECTOR('',#616,1.);
#51=VECTOR('',#619,1.);
#52=VECTOR('',#622,1.);
#53=VECTOR('',#625,1.);
#54=VECTOR('',#628,1.);
#55=VECTOR('',#629,1.);
#56=VECTOR('',#630,1.);
#57=VECTOR('',#631,1.);
#58=VECTOR('',#644,1.);
#59=VECTOR('',#647,1.);
#60=VECTOR('',#650,1.);
#61=VECTOR('',#653,1.);
#62=VECTOR('',#656,1.);
#63=VECTOR('',#659,1.);
#64=VECTOR('',#662,1.);
#65=VECTOR('',#663,1.);
#66=VECTOR('',#664,1.);
#67=VECTOR('',#665,1.);
#68=VECTOR('',#668,1.);
#69=VECTOR('',#669,1.);
#70=VECTOR('',#672,1.);
#71=VECTOR('',#673,1.);
#72=VECTOR('',#676,1.);
#73=VECTOR('',#677,1.);
#74=VECTOR('',#680,1.);
#75=VECTOR('',#683,1.);
#76=VECTOR('',#684,1.);
#77=VECTOR('',#687,1.);
#78=VECTOR('',#688,1.);
#79=VECTOR('',#693,1.);
#80=VECTOR('',#704,1.);
#81=VECTOR('',#705,1.);
#82=VECTOR('',#708,1.);
#83=VECTOR('',#711,1.);
#84=PLANE('',#536);
#85=PLANE('',#545);
#86=PLANE('',#557);
#87=PLANE('',#558);
#88=PLANE('',#565);
#89=PLANE('',#566);
#90=PLANE('',#567);
#91=PLANE('',#568);
#92=PLANE('',#569);
#93=PLANE('',#570);
#94=PLANE('',#571);
#95=PLANE('',#572);
#96=PLANE('',#577);
#97=PLANE('',#580);
#98=PLANE('',#583);
#99=ORIENTED_EDGE('',*,*,#227,.F.);
#100=ORIENTED_EDGE('',*,*,#228,.T.);
#101=ORIENTED_EDGE('',*,*,#229,.F.);
#102=ORIENTED_EDGE('',*,*,#230,.T.);
#103=ORIENTED_EDGE('',*,*,#231,.F.);
#104=ORIENTED_EDGE('',*,*,#232,.T.);
#105=ORIENTED_EDGE('',*,*,#231,.T.);
#106=ORIENTED_EDGE('',*,*,#229,.T.);
#107=ORIENTED_EDGE('',*,*,#227,.T.);
#108=ORIENTED_EDGE('',*,*,#233,.T.);
#109=ORIENTED_EDGE('',*,*,#234,.T.);
#110=ORIENTED_EDGE('',*,*,#235,.T.);
#111=ORIENTED_EDGE('',*,*,#236,.T.);
#112=ORIENTED_EDGE('',*,*,#237,.T.);
#113=ORIENTED_EDGE('',*,*,#238,.T.);
#114=ORIENTED_EDGE('',*,*,#239,.T.);
#115=ORIENTED_EDGE('',*,*,#240,.T.);
#116=ORIENTED_EDGE('',*,*,#241,.T.);
#117=ORIENTED_EDGE('',*,*,#242,.T.);
#118=ORIENTED_EDGE('',*,*,#243,.T.);
#119=ORIENTED_EDGE('',*,*,#244,.T.);
#120=ORIENTED_EDGE('',*,*,#245,.T.);
#121=ORIENTED_EDGE('',*,*,#246,.T.);
#122=ORIENTED_EDGE('',*,*,#247,.F.);
#123=ORIENTED_EDGE('',*,*,#248,.T.);
#124=ORIENTED_EDGE('',*,*,#249,.T.);
#125=ORIENTED_EDGE('',*,*,#250,.F.);
#126=ORIENTED_EDGE('',*,*,#251,.F.);
#127=ORIENTED_EDGE('',*,*,#252,.F.);
#128=ORIENTED_EDGE('',*,*,#253,.F.);
#129=ORIENTED_EDGE('',*,*,#254,.F.);
#130=ORIENTED_EDGE('',*,*,#255,.F.);
#131=ORIENTED_EDGE('',*,*,#256,.F.);
#132=ORIENTED_EDGE('',*,*,#257,.F.);
#133=ORIENTED_EDGE('',*,*,#258,.F.);
#134=ORIENTED_EDGE('',*,*,#259,.F.);
#135=ORIENTED_EDGE('',*,*,#260,.F.);
#136=ORIENTED_EDGE('',*,*,#261,.F.);
#137=ORIENTED_EDGE('',*,*,#262,.F.);
#138=ORIENTED_EDGE('',*,*,#263,.F.);
#139=ORIENTED_EDGE('',*,*,#264,.F.);
#140=ORIENTED_EDGE('',*,*,#265,.F.);
#141=ORIENTED_EDGE('',*,*,#266,.F.);
#142=ORIENTED_EDGE('',*,*,#267,.F.);
#143=ORIENTED_EDGE('',*,*,#268,.F.);
#144=ORIENTED_EDGE('',*,*,#269,.T.);
#145=ORIENTED_EDGE('',*,*,#270,.T.);
#146=ORIENTED_EDGE('',*,*,#271,.F.);
#147=ORIENTED_EDGE('',*,*,#272,.T.);
#148=ORIENTED_EDGE('',*,*,#266,.T.);
#149=ORIENTED_EDGE('',*,*,#273,.F.);
#150=ORIENTED_EDGE('',*,*,#237,.F.);
#151=ORIENTED_EDGE('',*,*,#274,.T.);
#152=ORIENTED_EDGE('',*,*,#264,.T.);
#153=ORIENTED_EDGE('',*,*,#275,.T.);
#154=ORIENTED_EDGE('',*,*,#239,.F.);
#155=ORIENTED_EDGE('',*,*,#259,.T.);
#156=ORIENTED_EDGE('',*,*,#276,.T.);
#157=ORIENTED_EDGE('',*,*,#244,.F.);
#158=ORIENTED_EDGE('',*,*,#277,.F.);
#159=ORIENTED_EDGE('',*,*,#275,.F.);
#160=ORIENTED_EDGE('',*,*,#263,.T.);
#161=ORIENTED_EDGE('',*,*,#278,.F.);
#162=ORIENTED_EDGE('',*,*,#240,.F.);
#163=ORIENTED_EDGE('',*,*,#279,.T.);
#164=ORIENTED_EDGE('',*,*,#261,.T.);
#165=ORIENTED_EDGE('',*,*,#280,.T.);
#166=ORIENTED_EDGE('',*,*,#242,.F.);
#167=ORIENTED_EDGE('',*,*,#281,.T.);
#168=ORIENTED_EDGE('',*,*,#257,.T.);
#169=ORIENTED_EDGE('',*,*,#282,.F.);
#170=ORIENTED_EDGE('',*,*,#246,.F.);
#171=ORIENTED_EDGE('',*,*,#273,.T.);
#172=ORIENTED_EDGE('',*,*,#265,.T.);
#173=ORIENTED_EDGE('',*,*,#274,.F.);
#174=ORIENTED_EDGE('',*,*,#238,.F.);
#175=ORIENTED_EDGE('',*,*,#283,.T.);
#176=ORIENTED_EDGE('',*,*,#267,.T.);
#177=ORIENTED_EDGE('',*,*,#272,.F.);
#178=ORIENTED_EDGE('',*,*,#236,.F.);
#179=ORIENTED_EDGE('',*,*,#260,.T.);
#180=ORIENTED_EDGE('',*,*,#277,.T.);
#181=ORIENTED_EDGE('',*,*,#243,.F.);
#182=ORIENTED_EDGE('',*,*,#280,.F.);
#183=ORIENTED_EDGE('',*,*,#276,.F.);
#184=ORIENTED_EDGE('',*,*,#258,.T.);
#185=ORIENTED_EDGE('',*,*,#281,.F.);
#186=ORIENTED_EDGE('',*,*,#245,.F.);
#187=ORIENTED_EDGE('',*,*,#278,.T.);
#188=ORIENTED_EDGE('',*,*,#262,.T.);
#189=ORIENTED_EDGE('',*,*,#279,.F.);
#190=ORIENTED_EDGE('',*,*,#241,.F.);
#191=ORIENTED_EDGE('',*,*,#282,.T.);
#192=ORIENTED_EDGE('',*,*,#256,.T.);
#193=ORIENTED_EDGE('',*,*,#283,.F.);
#194=ORIENTED_EDGE('',*,*,#235,.F.);
#195=ORIENTED_EDGE('',*,*,#284,.T.);
#196=ORIENTED_EDGE('',*,*,#269,.F.);
#197=ORIENTED_EDGE('',*,*,#285,.F.);
#198=ORIENTED_EDGE('',*,*,#247,.T.);
#199=ORIENTED_EDGE('',*,*,#285,.T.);
#200=ORIENTED_EDGE('',*,*,#268,.T.);
#201=ORIENTED_EDGE('',*,*,#286,.F.);
#202=ORIENTED_EDGE('',*,*,#248,.F.);
#203=ORIENTED_EDGE('',*,*,#286,.T.);
#204=ORIENTED_EDGE('',*,*,#271,.T.);
#205=ORIENTED_EDGE('',*,*,#287,.F.);
#206=ORIENTED_EDGE('',*,*,#249,.F.);
#207=ORIENTED_EDGE('',*,*,#287,.T.);
#208=ORIENTED_EDGE('',*,*,#270,.F.);
#209=ORIENTED_EDGE('',*,*,#284,.F.);
#210=ORIENTED_EDGE('',*,*,#250,.T.);
#211=ORIENTED_EDGE('',*,*,#255,.T.);
#212=ORIENTED_EDGE('',*,*,#234,.F.);
#213=ORIENTED_EDGE('',*,*,#254,.T.);
#214=ORIENTED_EDGE('',*,*,#233,.F.);
#215=ORIENTED_EDGE('',*,*,#288,.F.);
#216=ORIENTED_EDGE('',*,*,#251,.T.);
#217=ORIENTED_EDGE('',*,*,#232,.F.);
#218=ORIENTED_EDGE('',*,*,#288,.T.);
#219=ORIENTED_EDGE('',*,*,#289,.F.);
#220=ORIENTED_EDGE('',*,*,#253,.T.);
#221=ORIENTED_EDGE('',*,*,#230,.F.);
#222=ORIENTED_EDGE('',*,*,#289,.T.);
#223=ORIENTED_EDGE('',*,*,#290,.F.);
#224=ORIENTED_EDGE('',*,*,#252,.T.);
#225=ORIENTED_EDGE('',*,*,#228,.F.);
#226=ORIENTED_EDGE('',*,*,#290,.T.);
#227=EDGE_CURVE('',#291,#291,#339,.T.);
#228=EDGE_CURVE('',#292,#292,#340,.T.);
#229=EDGE_CURVE('',#293,#293,#341,.T.);
#230=EDGE_CURVE('',#294,#294,#342,.T.);
#231=EDGE_CURVE('',#295,#295,#343,.T.);
#232=EDGE_CURVE('',#296,#296,#344,.T.);
#233=EDGE_CURVE('',#297,#297,#345,.T.);
#234=EDGE_CURVE('',#298,#298,#346,.T.);
#235=EDGE_CURVE('',#299,#300,#12,.T.);
#236=EDGE_CURVE('',#300,#301,#347,.T.);
#237=EDGE_CURVE('',#301,#302,#13,.T.);
#238=EDGE_CURVE('',#302,#303,#348,.T.);
#239=EDGE_CURVE('',#303,#304,#14,.T.);
#240=EDGE_CURVE('',#304,#305,#349,.T.);
#241=EDGE_CURVE('',#305,#306,#15,.T.);
#242=EDGE_CURVE('',#306,#307,#350,.T.);
#243=EDGE_CURVE('',#307,#308,#16,.T.);
#244=EDGE_CURVE('',#308,#309,#351,.T.);
#245=EDGE_CURVE('',#309,#310,#17,.T.);
#246=EDGE_CURVE('',#310,#299,#352,.T.);
#247=EDGE_CURVE('',#311,#312,#18,.T.);
#248=EDGE_CURVE('',#311,#313,#19,.T.);
#249=EDGE_CURVE('',#313,#314,#20,.T.);
#250=EDGE_CURVE('',#312,#314,#21,.T.);
#251=EDGE_CURVE('',#315,#315,#353,.T.);
#252=EDGE_CURVE('',#316,#316,#354,.T.);
#253=EDGE_CURVE('',#317,#317,#355,.T.);
#254=EDGE_CURVE('',#318,#318,#356,.T.);
#255=EDGE_CURVE('',#319,#319,#357,.T.);
#256=EDGE_CURVE('',#320,#321,#22,.T.);
#257=EDGE_CURVE('',#322,#320,#358,.F.);
#258=EDGE_CURVE('',#323,#322,#23,.T.);
#259=EDGE_CURVE('',#324,#323,#359,.T.);
#260=EDGE_CURVE('',#325,#324,#24,.T.);
#261=EDGE_CURVE('',#326,#325,#360,.F.);
#262=EDGE_CURVE('',#327,#326,#25,.T.);
#263=EDGE_CURVE('',#328,#327,#361,.F.);
#264=EDGE_CURVE('',#329,#328,#26,.T.);
#265=EDGE_CURVE('',#330,#329,#362,.F.);
#266=EDGE_CURVE('',#331,#330,#27,.T.);
#267=EDGE_CURVE('',#321,#331,#363,.F.);
#268=EDGE_CURVE('',#332,#333,#28,.T.);
#269=EDGE_CURVE('',#332,#334,#29,.T.);
#270=EDGE_CURVE('',#334,#335,#30,.T.);
#271=EDGE_CURVE('',#333,#335,#31,.T.);
#272=EDGE_CURVE('',#301,#331,#32,.T.);
#273=EDGE_CURVE('',#302,#330,#33,.T.);
#274=EDGE_CURVE('',#303,#329,#34,.T.);
#275=EDGE_CURVE('',#328,#304,#35,.T.);
#276=EDGE_CURVE('',#323,#309,#36,.T.);
#277=EDGE_CURVE('',#324,#308,#37,.T.);
#278=EDGE_CURVE('',#305,#327,#38,.T.);
#279=EDGE_CURVE('',#306,#326,#39,.T.);
#280=EDGE_CURVE('',#325,#307,#40,.T.);
#281=EDGE_CURVE('',#310,#322,#41,.T.);
#282=EDGE_CURVE('',#299,#320,#42,.T.);
#283=EDGE_CURVE('',#300,#321,#43,.T.);
#284=EDGE_CURVE('',#312,#334,#44,.T.);
#285=EDGE_CURVE('',#311,#332,#45,.T.);
#286=EDGE_CURVE('',#313,#333,#46,.T.);
#287=EDGE_CURVE('',#314,#335,#47,.T.);
#288=EDGE_CURVE('',#336,#336,#364,.T.);
#289=EDGE_CURVE('',#337,#337,#365,.T.);
#290=EDGE_CURVE('',#338,#338,#366,.T.);
#291=VERTEX_POINT('',#739);
#292=VERTEX_POINT('',#741);
#293=VERTEX_POINT('',#744);
#294=VERTEX_POINT('',#746);
#295=VERTEX_POINT('',#749);
#296=VERTEX_POINT('',#751);
#297=VERTEX_POINT('',#754);
#298=VERTEX_POINT('',#756);
#299=VERTEX_POINT('',#758);
#300=VERTEX_POINT('',#759);
#301=VERTEX_POINT('',#761);
#302=VERTEX_POINT('',#763);
#303=VERTEX_POINT('',#765);
#304=VERTEX_POINT('',#767);
#305=VERTEX_POINT('',#769);
#306=VERTEX_POINT('',#771);
#307=VERTEX_POINT('',#773);
#308=VERTEX_POINT('',#775);
#309=VERTEX_POINT('',#777);
#310=VERTEX_POINT('',#779);
#311=VERTEX_POINT('',#782);
#312=VERTEX_POINT('',#783);
#313=VERTEX_POINT('',#785);
#314=VERTEX_POINT('',#787);
#315=VERTEX_POINT('',#791);
#316=VERTEX_POINT('',#793);
#317=VERTEX_POINT('',#795);
#318=VERTEX_POINT('',#797);
#319=VERTEX_POINT('',#799);
#320=VERTEX_POINT('',#801);
#321=VERTEX_POINT('',#802);
#322=VERTEX_POINT('',#804);
#323=VERTEX_POINT('',#806);
#324=VERTEX_POINT('',#808);
#325=VERTEX_POINT('',#810);
#326=VERTEX_POINT('',#812);
#327=VERTEX_POINT('',#814);
#328=VERTEX_POINT('',#816);
#329=VERTEX_POINT('',#818);
#330=VERTEX_POINT('',#820);
#331=VERTEX_POINT('',#822);
#332=VERTEX_POINT('',#825);
#333=VERTEX_POINT('',#826);
#334=VERTEX_POINT('',#828);
#335=VERTEX_POINT('',#830);
#336=VERTEX_POINT('',#868);
#337=VERTEX_POINT('',#872);
#338=VERTEX_POINT('',#876);
#339=CIRCLE('',#528,0.0018);
#340=CIRCLE('',#529,0.0018);
#341=CIRCLE('',#531,0.0018);
#342=CIRCLE('',#532,0.0018);
#343=CIRCLE('',#534,0.0018);
#344=CIRCLE('',#535,0.0018);
#345=CIRCLE('',#537,0.0028);
#346=CIRCLE('',#538,0.0028);
#347=CIRCLE('',#539,0.006);
#348=CIRCLE('',#540,0.006);
#349=CIRCLE('',#541,0.003);
#350=CIRCLE('',#542,0.003);
#351=CIRCLE('',#543,0.002);
#352=CIRCLE('',#544,0.002);
#353=CIRCLE('',#546,0.0032);
#354=CIRCLE('',#547,0.0032);
#355=CIRCLE('',#548,0.0032);
#356=CIRCLE('',#549,0.0028);
#357=CIRCLE('',#550,0.0028);
#358=CIRCLE('',#551,0.002);
#359=CIRCLE('',#552,0.002);
#360=CIRCLE('',#553,0.003);
#361=CIRCLE('',#554,0.003);
#362=CIRCLE('',#555,0.006);
#363=CIRCLE('',#556,0.006);
#364=CIRCLE('',#576,0.0032);
#365=CIRCLE('',#579,0.0032);
#366=CIRCLE('',#582,0.0032);
#367=EDGE_LOOP('',(#99));
#368=EDGE_LOOP('',(#100));
#369=EDGE_LOOP('',(#101));
#370=EDGE_LOOP('',(#102));
#371=EDGE_LOOP('',(#103));
#372=EDGE_LOOP('',(#104));
#373=EDGE_LOOP('',(#105));
#374=EDGE_LOOP('',(#106));
#375=EDGE_LOOP('',(#107));
#376=EDGE_LOOP('',(#108));
#377=EDGE_LOOP('',(#109));
#378=EDGE_LOOP('',(#110,#111,#112,#113,#114,#115,#116,#117,#118,#119,#120,
#121));
#379=EDGE_LOOP('',(#122,#123,#124,#125));
#380=EDGE_LOOP('',(#126));
#381=EDGE_LOOP('',(#127));
#382=EDGE_LOOP('',(#128));
#383=EDGE_LOOP('',(#129));
#384=EDGE_LOOP('',(#130));
#385=EDGE_LOOP('',(#131,#132,#133,#134,#135,#136,#137,#138,#139,#140,#141,
#142));
#386=EDGE_LOOP('',(#143,#144,#145,#146));
#387=EDGE_LOOP('',(#147,#148,#149,#150));
#388=EDGE_LOOP('',(#151,#152,#153,#154));
#389=EDGE_LOOP('',(#155,#156,#157,#158));
#390=EDGE_LOOP('',(#159,#160,#161,#162));
#391=EDGE_LOOP('',(#163,#164,#165,#166));
#392=EDGE_LOOP('',(#167,#168,#169,#170));
#393=EDGE_LOOP('',(#171,#172,#173,#174));
#394=EDGE_LOOP('',(#175,#176,#177,#178));
#395=EDGE_LOOP('',(#179,#180,#181,#182));
#396=EDGE_LOOP('',(#183,#184,#185,#186));
#397=EDGE_LOOP('',(#187,#188,#189,#190));
#398=EDGE_LOOP('',(#191,#192,#193,#194));
#399=EDGE_LOOP('',(#195,#196,#197,#198));
#400=EDGE_LOOP('',(#199,#200,#201,#202));
#401=EDGE_LOOP('',(#203,#204,#205,#206));
#402=EDGE_LOOP('',(#207,#208,#209,#210));
#403=EDGE_LOOP('',(#211));
#404=EDGE_LOOP('',(#212));
#405=EDGE_LOOP('',(#213));
#406=EDGE_LOOP('',(#214));
#407=EDGE_LOOP('',(#215));
#408=EDGE_LOOP('',(#216));
#409=EDGE_LOOP('',(#217));
#410=EDGE_LOOP('',(#218));
#411=EDGE_LOOP('',(#219));
#412=EDGE_LOOP('',(#220));
#413=EDGE_LOOP('',(#221));
#414=EDGE_LOOP('',(#222));
#415=EDGE_LOOP('',(#223));
#416=EDGE_LOOP('',(#224));
#417=EDGE_LOOP('',(#225));
#418=EDGE_LOOP('',(#226));
#419=FACE_BOUND('',#367,.T.);
#420=FACE_BOUND('',#368,.T.);
#421=FACE_BOUND('',#369,.T.);
#422=FACE_BOUND('',#370,.T.);
#423=FACE_BOUND('',#371,.T.);
#424=FACE_BOUND('',#372,.T.);
#425=FACE_BOUND('',#373,.T.);
#426=FACE_BOUND('',#374,.T.);
#427=FACE_BOUND('',#375,.T.);
#428=FACE_BOUND('',#376,.T.);
#429=FACE_BOUND('',#377,.T.);
#430=FACE_BOUND('',#378,.T.);
#431=FACE_BOUND('',#379,.T.);
#432=FACE_BOUND('',#380,.T.);
#433=FACE_BOUND('',#381,.T.);
#434=FACE_BOUND('',#382,.T.);
#435=FACE_BOUND('',#383,.T.);
#436=FACE_BOUND('',#384,.T.);
#437=FACE_BOUND('',#385,.T.);
#438=FACE_BOUND('',#386,.T.);
#439=FACE_BOUND('',#387,.T.);
#440=FACE_BOUND('',#388,.T.);
#441=FACE_BOUND('',#389,.T.);
#442=FACE_BOUND('',#390,.T.);
#443=FACE_BOUND('',#391,.T.);
#444=FACE_BOUND('',#392,.T.);
#445=FACE_BOUND('',#393,.T.);
#446=FACE_BOUND('',#394,.T.);
#447=FACE_BOUND('',#395,.T.);
#448=FACE_BOUND('',#396,.T.);
#449=FACE_BOUND('',#397,.T.);
#450=FACE_BOUND('',#398,.T.);
#451=FACE_BOUND('',#399,.T.);
#452=FACE_BOUND('',#400,.T.);
#453=FACE_BOUND('',#401,.T.);
#454=FACE_BOUND('',#402,.T.);
#455=FACE_BOUND('',#403,.T.);
#456=FACE_BOUND('',#404,.T.);
#457=FACE_BOUND('',#405,.T.);
#458=FACE_BOUND('',#406,.T.);
#459=FACE_BOUND('',#407,.T.);
#460=FACE_BOUND('',#408,.T.);
#461=FACE_BOUND('',#409,.T.);
#462=FACE_BOUND('',#410,.T.);
#463=FACE_BOUND('',#411,.T.);
#464=FACE_BOUND('',#412,.T.);
#465=FACE_BOUND('',#413,.T.);
#466=FACE_BOUND('',#414,.T.);
#467=FACE_BOUND('',#415,.T.);
#468=FACE_BOUND('',#416,.T.);
#469=FACE_BOUND('',#417,.T.);
#470=FACE_BOUND('',#418,.T.);
#471=CYLINDRICAL_SURFACE('',#527,0.0018);
#472=CYLINDRICAL_SURFACE('',#530,0.0018);
#473=CYLINDRICAL_SURFACE('',#533,0.0018);
#474=CYLINDRICAL_SURFACE('',#559,0.002);
#475=CYLINDRICAL_SURFACE('',#560,0.003);
#476=CYLINDRICAL_SURFACE('',#561,0.003);
#477=CYLINDRICAL_SURFACE('',#562,0.002);
#478=CYLINDRICAL_SURFACE('',#563,0.006);
#479=CYLINDRICAL_SURFACE('',#564,0.006);
#480=CYLINDRICAL_SURFACE('',#573,0.0028);
#481=CYLINDRICAL_SURFACE('',#574,0.0028);
#482=CYLINDRICAL_SURFACE('',#575,0.0032);
#483=CYLINDRICAL_SURFACE('',#578,0.0032);
#484=CYLINDRICAL_SURFACE('',#581,0.0032);
#485=ADVANCED_FACE('',(#419,#420),#471,.F.);
#486=ADVANCED_FACE('',(#421,#422),#472,.F.);
#487=ADVANCED_FACE('',(#423,#424),#473,.F.);
#488=ADVANCED_FACE('',(#425,#426,#427,#428,#429,#430,#431),#84,.F.);
#489=ADVANCED_FACE('',(#432,#433,#434,#435,#436,#437,#438),#85,.T.);
#490=ADVANCED_FACE('',(#439),#86,.T.);
#491=ADVANCED_FACE('',(#440),#87,.T.);
#492=ADVANCED_FACE('',(#441),#474,.F.);
#493=ADVANCED_FACE('',(#442),#475,.T.);
#494=ADVANCED_FACE('',(#443),#476,.T.);
#495=ADVANCED_FACE('',(#444),#477,.T.);
#496=ADVANCED_FACE('',(#445),#478,.T.);
#497=ADVANCED_FACE('',(#446),#479,.T.);
#498=ADVANCED_FACE('',(#447),#88,.F.);
#499=ADVANCED_FACE('',(#448),#89,.T.);
#500=ADVANCED_FACE('',(#449),#90,.F.);
#501=ADVANCED_FACE('',(#450),#91,.F.);
#502=ADVANCED_FACE('',(#451),#92,.T.);
#503=ADVANCED_FACE('',(#452),#93,.F.);
#504=ADVANCED_FACE('',(#453),#94,.F.);
#505=ADVANCED_FACE('',(#454),#95,.T.);
#506=ADVANCED_FACE('',(#455,#456),#480,.F.);
#507=ADVANCED_FACE('',(#457,#458),#481,.F.);
#508=ADVANCED_FACE('',(#459,#460),#482,.F.);
#509=ADVANCED_FACE('',(#461,#462),#96,.T.);
#510=ADVANCED_FACE('',(#463,#464),#483,.F.);
#511=ADVANCED_FACE('',(#465,#466),#97,.T.);
#512=ADVANCED_FACE('',(#467,#468),#484,.F.);
#513=ADVANCED_FACE('',(#469,#470),#98,.T.);
#514=CLOSED_SHELL('',(#485,#486,#487,#488,#489,#490,#491,#492,#493,#494,
#495,#496,#497,#498,#499,#500,#501,#502,#503,#504,#505,#506,#507,#508,#509,
#510,#511,#512,#513));
#515=STYLED_ITEM('',(#516),#523);
#516=PRESENTATION_STYLE_ASSIGNMENT((#517));
#517=SURFACE_STYLE_USAGE(.BOTH.,#518);
#518=SURFACE_SIDE_STYLE('',(#519));
#519=SURFACE_STYLE_FILL_AREA(#520);
#520=FILL_AREA_STYLE('',(#521));
#521=FILL_AREA_STYLE_COLOUR('',#522);
#522=COLOUR_RGB('',1.,0.6,0.);
#523=MANIFOLD_SOLID_BREP('L bracket',#514);
#524=SHAPE_DEFINITION_REPRESENTATION(#884,#525);
#525=SHAPE_REPRESENTATION('L bracket',(#526),#879);
#526=AXIS2_PLACEMENT_3D('',#736,#584,#585);
#527=AXIS2_PLACEMENT_3D('',#737,#586,#587);
#528=AXIS2_PLACEMENT_3D('',#738,#588,#589);
#529=AXIS2_PLACEMENT_3D('',#740,#590,#591);
#530=AXIS2_PLACEMENT_3D('',#742,#592,#593);
#531=AXIS2_PLACEMENT_3D('',#743,#594,#595);
#532=AXIS2_PLACEMENT_3D('',#745,#596,#597);
#533=AXIS2_PLACEMENT_3D('',#747,#598,#599);
#534=AXIS2_PLACEMENT_3D('',#748,#600,#601);
#535=AXIS2_PLACEMENT_3D('',#750,#602,#603);
#536=AXIS2_PLACEMENT_3D('',#752,#604,#605);
#537=AXIS2_PLACEMENT_3D('',#753,#606,#607);
#538=AXIS2_PLACEMENT_3D('',#755,#608,#609);
#539=AXIS2_PLACEMENT_3D('',#760,#611,#612);
#540=AXIS2_PLACEMENT_3D('',#764,#614,#615);
#541=AXIS2_PLACEMENT_3D('',#768,#617,#618);
#542=AXIS2_PLACEMENT_3D('',#772,#620,#621);
#543=AXIS2_PLACEMENT_3D('',#776,#623,#624);
#544=AXIS2_PLACEMENT_3D('',#780,#626,#627);
#545=AXIS2_PLACEMENT_3D('',#789,#632,#633);
#546=AXIS2_PLACEMENT_3D('',#790,#634,#635);
#547=AXIS2_PLACEMENT_3D('',#792,#636,#637);
#548=AXIS2_PLACEMENT_3D('',#794,#638,#639);
#549=AXIS2_PLACEMENT_3D('',#796,#640,#641);
#550=AXIS2_PLACEMENT_3D('',#798,#642,#643);
#551=AXIS2_PLACEMENT_3D('',#803,#645,#646);
#552=AXIS2_PLACEMENT_3D('',#807,#648,#649);
#553=AXIS2_PLACEMENT_3D('',#811,#651,#652);
#554=AXIS2_PLACEMENT_3D('',#815,#654,#655);
#555=AXIS2_PLACEMENT_3D('',#819,#657,#658);
#556=AXIS2_PLACEMENT_3D('',#823,#660,#661);
#557=AXIS2_PLACEMENT_3D('',#832,#666,#667);
#558=AXIS2_PLACEMENT_3D('',#835,#670,#671);
#559=AXIS2_PLACEMENT_3D('',#838,#674,#675);
#560=AXIS2_PLACEMENT_3D('',#841,#678,#679);
#561=AXIS2_PLACEMENT_3D('',#843,#681,#682);
#562=AXIS2_PLACEMENT_3D('',#846,#685,#686);
#563=AXIS2_PLACEMENT_3D('',#849,#689,#690);
#564=AXIS2_PLACEMENT_3D('',#850,#691,#692);
#565=AXIS2_PLACEMENT_3D('',#852,#694,#695);
#566=AXIS2_PLACEMENT_3D('',#853,#696,#697);
#567=AXIS2_PLACEMENT_3D('',#854,#698,#699);
#568=AXIS2_PLACEMENT_3D('',#855,#700,#701);
#569=AXIS2_PLACEMENT_3D('',#856,#702,#703);
#570=AXIS2_PLACEMENT_3D('',#859,#706,#707);
#571=AXIS2_PLACEMENT_3D('',#861,#709,#710);
#572=AXIS2_PLACEMENT_3D('',#863,#712,#713);
#573=AXIS2_PLACEMENT_3D('',#864,#714,#715);
#574=AXIS2_PLACEMENT_3D('',#865,#716,#717);
#575=AXIS2_PLACEMENT_3D('',#866,#718,#719);
#576=AXIS2_PLACEMENT_3D('',#867,#720,#721);
#577=AXIS2_PLACEMENT_3D('',#869,#722,#723);
#578=AXIS2_PLACEMENT_3D('',#870,#724,#725);
#579=AXIS2_PLACEMENT_3D('',#871,#726,#727);
#580=AXIS2_PLACEMENT_3D('',#873,#728,#729);
#581=AXIS2_PLACEMENT_3D('',#874,#730,#731);
#582=AXIS2_PLACEMENT_3D('',#875,#732,#733);
#583=AXIS2_PLACEMENT_3D('',#877,#734,#735);
#584=DIRECTION('',(0.,0.,1.));
#585=DIRECTION('',(1.,0.,0.));
#586=DIRECTION('',(-1.04274793143314E-14,-1.,1.17145334231623E-15));
#587=DIRECTION('',(1.,-1.04274793143314E-14,0.));
#588=DIRECTION('',(-1.04274793143314E-14,-1.,1.17145334231623E-15));
#589=DIRECTION('',(1.,-1.04274793143314E-14,0.));
#590=DIRECTION('',(-1.04274793143314E-14,-1.,1.17145334231623E-15));
#591=DIRECTION('',(1.,-1.04274793143314E-14,0.));
#592=DIRECTION('',(-1.04274793143314E-14,-1.,1.17145334231623E-15));
#593=DIRECTION('',(1.,-1.04274793143314E-14,0.));
#594=DIRECTION('',(-1.04274793143314E-14,-1.,1.17145334231623E-15));
#595=DIRECTION('',(1.,-1.04274793143314E-14,0.));
#596=DIRECTION('',(-1.04274793143314E-14,-1.,1.17145334231623E-15));
#597=DIRECTION('',(1.,-1.04274793143314E-14,0.));
#598=DIRECTION('',(-1.04274793143314E-14,-1.,1.17145334231623E-15));
#599=DIRECTION('',(1.,-1.04274793143314E-14,0.));
#600=DIRECTION('',(-1.04274793143314E-14,-1.,1.17145334231623E-15));
#601=DIRECTION('',(1.,-1.04274793143314E-14,0.));
#602=DIRECTION('',(-1.04274793143314E-14,-1.,1.17145334231623E-15));
#603=DIRECTION('',(1.,-1.04274793143314E-14,0.));
#604=DIRECTION('',(-1.04274793143314E-14,-1.,1.17145334231623E-15));
#605=DIRECTION('',(-1.,1.04274793143314E-14,-4.54272779118147E-15));
#606=DIRECTION('',(-1.04274793143314E-14,-1.,1.17145334231623E-15));
#607=DIRECTION('',(1.,-1.04274793143314E-14,0.));
#608=DIRECTION('',(-1.04274793143314E-14,-1.,1.17145334231623E-15));
#609=DIRECTION('',(1.,-1.04274793143314E-14,0.));
#610=DIRECTION('',(-4.04768811061255E-15,2.31296463463574E-15,1.));
#611=DIRECTION('',(0.,1.,0.));
#612=DIRECTION('',(-1.,0.,-1.83697019872103E-16));
#613=DIRECTION('',(1.,-1.02503691533743E-14,4.19333283547129E-15));
#614=DIRECTION('',(0.,1.,0.));
#615=DIRECTION('',(-1.,0.,-1.83697019872103E-16));
#616=DIRECTION('',(4.62592926927223E-15,-1.48029736616711E-15,-1.));
#617=DIRECTION('',(0.,1.,0.));
#618=DIRECTION('',(-1.,0.,-1.83697019872103E-16));
#619=DIRECTION('',(-1.,1.17083695973825E-14,-3.90278986579418E-15));
#620=DIRECTION('',(0.,1.,0.));
#621=DIRECTION('',(-1.,0.,-1.83697019872103E-16));
#622=DIRECTION('',(-4.51834951882457E-15,1.29095700537845E-15,1.));
#623=DIRECTION('',(-9.25185853854297E-15,-1.,1.17145334231623E-15));
#624=DIRECTION('',(-1.,9.25185853854297E-15,1.22464679914735E-16));
#625=DIRECTION('',(-1.,1.05518139638878E-14,-4.68969509506125E-15));
#626=DIRECTION('',(0.,1.,0.));
#627=DIRECTION('',(-1.,0.,-1.83697019872103E-16));
#628=DIRECTION('',(-1.,1.04274793143314E-14,3.64535880911721E-30));
#629=DIRECTION('',(-4.49743123401393E-15,1.17145334231628E-15,1.));
#630=DIRECTION('',(-1.,1.04274793143314E-14,3.64535880911721E-30));
#631=DIRECTION('',(-4.49743123401393E-15,1.17145334231628E-15,1.));
#632=DIRECTION('',(-1.04274793143314E-14,-1.,1.17145334231623E-15));
#633=DIRECTION('',(-1.,1.04274793143314E-14,-4.54272779118147E-15));
#634=DIRECTION('',(-1.04274793143314E-14,-1.,1.17145334231623E-15));
#635=DIRECTION('',(1.,-1.04274793143314E-14,0.));
#636=DIRECTION('',(-1.04274793143314E-14,-1.,1.17145334231623E-15));
#637=DIRECTION('',(1.,-1.04274793143314E-14,0.));
#638=DIRECTION('',(-1.04274793143314E-14,-1.,1.17145334231623E-15));
#639=DIRECTION('',(1.,-1.04274793143314E-14,0.));
#640=DIRECTION('',(-1.04274793143314E-14,-1.,1.17145334231623E-15));
#641=DIRECTION('',(1.,-1.04274793143314E-14,0.));
#642=DIRECTION('',(-1.04274793143314E-14,-1.,1.17145334231623E-15));
#643=DIRECTION('',(1.,-1.04274793143314E-14,0.));
#644=DIRECTION('',(-4.04768811061256E-15,1.17145334231627E-15,1.));
#645=DIRECTION('',(-1.04274793143314E-14,-1.,1.17145334231623E-15));
#646=DIRECTION('',(1.,-1.04274793143314E-14,0.));
#647=DIRECTION('',(-1.,1.04274793143314E-14,-4.68969509506125E-15));
#648=DIRECTION('',(-1.04274793143314E-14,-1.,1.17145334231623E-15));
#649=DIRECTION('',(1.,-1.04274793143314E-14,0.));
#650=DIRECTION('',(-4.51834951882458E-15,1.17145334231628E-15,1.));
#651=DIRECTION('',(-1.04274793143314E-14,-1.,1.17145334231623E-15));
#652=DIRECTION('',(1.,-1.04274793143314E-14,0.));
#653=DIRECTION('',(-1.,1.04274793143314E-14,-3.90278986579417E-15));
#654=DIRECTION('',(-1.04274793143314E-14,-1.,1.17145334231623E-15));
#655=DIRECTION('',(1.,-1.04274793143314E-14,0.));
#656=DIRECTION('',(4.62592926927223E-15,-1.17145334231628E-15,-1.));
#657=DIRECTION('',(-1.04274793143314E-14,-1.,1.17145334231623E-15));
#658=DIRECTION('',(1.,-1.04274793143314E-14,0.));
#659=DIRECTION('',(1.,-1.04274793143314E-14,4.19333283547129E-15));
#660=DIRECTION('',(-1.04274793143314E-14,-1.,1.17145334231623E-15));
#661=DIRECTION('',(1.,-1.04274793143314E-14,0.));
#662=DIRECTION('',(-4.49743123401393E-15,1.17145334231628E-15,1.));
#663=DIRECTION('',(-1.,1.04274793143314E-14,3.64535880911721E-30));
#664=DIRECTION('',(-4.49743123401393E-15,1.17145334231628E-15,1.));
#665=DIRECTION('',(-1.,1.04274793143314E-14,3.64535880911721E-30));
#666=DIRECTION('',(-4.54272374664899E-15,1.17145334231628E-15,1.));
#667=DIRECTION('',(-1.,1.04274793143314E-14,-4.542723746649E-15));
#668=DIRECTION('',(-1.04274793143314E-14,-1.,1.17145334231623E-15));
#669=DIRECTION('',(-1.04274793143314E-14,-1.,1.17145334231623E-15));
#670=DIRECTION('',(1.,-1.04274793143314E-14,4.54272779118147E-15));
#671=DIRECTION('',(1.04274793143314E-14,1.,-1.17145334231623E-15));
#672=DIRECTION('',(-1.04274793143314E-14,-1.,1.17145334231623E-15));
#673=DIRECTION('',(1.04274793143314E-14,1.,-1.17145334231623E-15));
#674=DIRECTION('',(1.04274793143314E-14,1.,-1.17145334231623E-15));
#675=DIRECTION('',(-1.,1.04274793143314E-14,-4.54272779118147E-15));
#676=DIRECTION('',(1.04274793143314E-14,1.,-1.17145334231623E-15));
#677=DIRECTION('',(1.04274793143314E-14,1.,-1.17145334231623E-15));
#678=DIRECTION('',(1.04274793143314E-14,1.,-1.17145334231623E-15));
#679=DIRECTION('',(-1.,1.04274793143314E-14,-4.54272779118147E-15));
#680=DIRECTION('',(-1.04274793143314E-14,-1.,1.17145334231623E-15));
#681=DIRECTION('',(-1.04274793143314E-14,-1.,1.17145334231623E-15));
#682=DIRECTION('',(1.,-1.04274793143314E-14,4.54272779118147E-15));
#683=DIRECTION('',(-1.04274793143314E-14,-1.,1.17145334231623E-15));
#684=DIRECTION('',(1.04274793143314E-14,1.,-1.17145334231623E-15));
#685=DIRECTION('',(1.04274793143314E-14,1.,-1.17145334231623E-15));
#686=DIRECTION('',(-1.,1.04274793143314E-14,-4.54272779118147E-15));
#687=DIRECTION('',(-1.04274793143314E-14,-1.,1.17145334231623E-15));
#688=DIRECTION('',(-1.04274793143314E-14,-1.,1.17145334231623E-15));
#689=DIRECTION('',(-1.04274793143314E-14,-1.,1.17145334231623E-15));
#690=DIRECTION('',(1.,-1.04274793143314E-14,4.54272779118147E-15));
#691=DIRECTION('',(-1.04274793143314E-14,-1.,1.17145334231623E-15));
#692=DIRECTION('',(1.,-1.04274793143314E-14,4.54272779118147E-15));
#693=DIRECTION('',(-1.04274793143314E-14,-1.,1.17145334231623E-15));
#694=DIRECTION('',(1.,-1.04274793143314E-14,4.54272779118147E-15));
#695=DIRECTION('',(1.04274793143314E-14,1.,-1.17145334231623E-15));
#696=DIRECTION('',(4.54272779118146E-15,-1.17145334231628E-15,-1.));
#697=DIRECTION('',(1.04274793143314E-14,1.,-1.17145334231623E-15));
#698=DIRECTION('',(-3.47520565211831E-15,1.17145334231627E-15,1.));
#699=DIRECTION('',(1.04274793143314E-14,1.,-1.17145334231623E-15));
#700=DIRECTION('',(1.,-1.04274793143314E-14,4.54272779118147E-15));
#701=DIRECTION('',(1.04274793143314E-14,1.,-1.17145334231623E-15));
#702=DIRECTION('',(1.58606643038241E-29,1.17145334231623E-15,1.));
#703=DIRECTION('',(0.,-1.,1.17145334231623E-15));
#704=DIRECTION('',(-1.04274793143314E-14,-1.,1.17145334231623E-15));
#705=DIRECTION('',(-1.04274793143314E-14,-1.,1.17145334231623E-15));
#706=DIRECTION('',(1.,-1.04274793143314E-14,4.49743123401395E-15));
#707=DIRECTION('',(1.04274793143314E-14,1.,0.));
#708=DIRECTION('',(-1.04274793143314E-14,-1.,1.17145334231623E-15));
#709=DIRECTION('',(1.58606643038241E-29,1.17145334231623E-15,1.));
#710=DIRECTION('',(0.,-1.,1.17145334231623E-15));
#711=DIRECTION('',(-1.04274793143314E-14,-1.,1.17145334231623E-15));
#712=DIRECTION('',(1.,-1.04274793143314E-14,4.49743123401395E-15));
#713=DIRECTION('',(1.04274793143314E-14,1.,0.));
#714=DIRECTION('',(-1.04274793143314E-14,-1.,1.17145334231623E-15));
#715=DIRECTION('',(1.,-1.04274793143314E-14,0.));
#716=DIRECTION('',(-1.04274793143314E-14,-1.,1.17145334231623E-15));
#717=DIRECTION('',(1.,-1.04274793143314E-14,0.));
#718=DIRECTION('',(-1.04274793143314E-14,-1.,1.17145334231623E-15));
#719=DIRECTION('',(1.,-1.04274793143314E-14,0.));
#720=DIRECTION('',(-1.04274793143314E-14,-1.,1.17145334231623E-15));
#721=DIRECTION('',(1.,-1.04274793143314E-14,0.));
#722=DIRECTION('',(-1.04274793143314E-14,-1.,1.17145334231623E-15));
#723=DIRECTION('',(1.,-1.04274793143314E-14,1.22153054947069E-29));
#724=DIRECTION('',(-1.04274793143314E-14,-1.,1.17145334231623E-15));
#725=DIRECTION('',(1.,-1.04274793143314E-14,0.));
#726=DIRECTION('',(-1.04274793143314E-14,-1.,1.17145334231623E-15));
#727=DIRECTION('',(1.,-1.04274793143314E-14,0.));
#728=DIRECTION('',(-1.04274793143314E-14,-1.,1.17145334231623E-15));
#729=DIRECTION('',(1.,-1.04274793143314E-14,1.22153054947069E-29));
#730=DIRECTION('',(-1.04274793143314E-14,-1.,1.17145334231623E-15));
#731=DIRECTION('',(1.,-1.04274793143314E-14,0.));
#732=DIRECTION('',(-1.04274793143314E-14,-1.,1.17145334231623E-15));
#733=DIRECTION('',(1.,-1.04274793143314E-14,0.));
#734=DIRECTION('',(-1.04274793143314E-14,-1.,1.17145334231623E-15));
#735=DIRECTION('',(1.,-1.04274793143314E-14,1.22153054947069E-29));
#736=CARTESIAN_POINT('',(0.,0.,0.));
#737=CARTESIAN_POINT('',(0.00825265642559989,0.117012936808775,0.013901579151792));
#738=CARTESIAN_POINT('',(0.0082526564255987,0.0034016194309591,0.0139015791517921));
#739=CARTESIAN_POINT('',(0.0100526564255987,0.00340161943095908,0.0139015791517921));
#740=CARTESIAN_POINT('',(0.00825265642559863,-0.00369838056903993,0.0139015791517921));
#741=CARTESIAN_POINT('',(0.0100526564255986,-0.00369838056903995,0.0139015791517921));
#742=CARTESIAN_POINT('',(0.029363453770282,0.117012936808775,-0.0065984208482017));
#743=CARTESIAN_POINT('',(0.0293634537702808,0.00340161943095882,-0.00659842084820156));
#744=CARTESIAN_POINT('',(0.0311634537702807,0.0034016194309588,-0.00659842084820156));
#745=CARTESIAN_POINT('',(0.0293634537702807,-0.00369838056904018,-0.00659842084820156));
#746=CARTESIAN_POINT('',(0.0311634537702807,-0.00369838056904019,-0.00659842084820156));
#747=CARTESIAN_POINT('',(-0.0317473435744001,0.117012936808775,0.013901579151792));
#748=CARTESIAN_POINT('',(-0.0317473435744013,0.00340161943095948,0.0139015791517921));
#749=CARTESIAN_POINT('',(-0.0299473435744013,0.00340161943095947,0.0139015791517921));
#750=CARTESIAN_POINT('',(-0.0317473435744014,-0.00369838056903951,0.0139015791517921));
#751=CARTESIAN_POINT('',(-0.0299473435744014,-0.00369838056903953,0.0139015791517921));
#752=CARTESIAN_POINT('',(0.0132234537702805,0.00340161943095901,0.00360157915179196));
#753=CARTESIAN_POINT('',(0.0293634537702808,0.00340161943095884,0.00390157915179745));
#754=CARTESIAN_POINT('',(0.0321634537702808,0.00340161943095882,0.00390157915179745));
#755=CARTESIAN_POINT('',(0.0293634537702808,0.00340161943095882,-0.0170984208482025));
#756=CARTESIAN_POINT('',(0.0321634537702808,0.00340161943095879,-0.0170984208482025));
#757=CARTESIAN_POINT('',(-0.0363473435744014,0.00340161943095951,0.00710157915179097));
#758=CARTESIAN_POINT('',(-0.0363473435744012,0.00340161943095951,0.00710157915179097));
#759=CARTESIAN_POINT('',(-0.0363473435744013,0.00340161943095951,0.019101579151791));
#760=CARTESIAN_POINT('',(-0.0303473435743972,0.00340161943095901,0.019101579151791));
#761=CARTESIAN_POINT('',(-0.0303473435744013,0.00340161943095951,0.025101579151791));
#762=CARTESIAN_POINT('',(-0.0303473435744014,0.00340161943095951,0.025101579151792));
#763=CARTESIAN_POINT('',(0.0292234537702805,0.00340161943095901,0.025101579151792));
#764=CARTESIAN_POINT('',(0.0292234537702846,0.00340161943095851,0.0191015791517915));
#765=CARTESIAN_POINT('',(0.0352234537702805,0.00340161943095901,0.019101579151792));
#766=CARTESIAN_POINT('',(0.0352234537702804,0.00340161943095901,0.019101579151792));
#767=CARTESIAN_POINT('',(0.0352234537702806,0.00340161943095851,-0.018398420848202));
#768=CARTESIAN_POINT('',(0.0322234537702838,0.00340161943095901,-0.0183984208482025));
#769=CARTESIAN_POINT('',(0.0322234537702808,0.00340161943095901,-0.021398420848202));
#770=CARTESIAN_POINT('',(0.0322234537702806,0.00340161943095851,-0.0213984208482015));
#771=CARTESIAN_POINT('',(0.0179999999999963,0.00340161943095901,-0.021398420848202));
#772=CARTESIAN_POINT('',(0.0179999999999995,0.00340161943095901,-0.0183984208482025));
#773=CARTESIAN_POINT('',(0.0149999999999963,0.00340161943095901,-0.018398420848202));
#774=CARTESIAN_POINT('',(0.0149999999999962,0.00340161943095901,-0.018398420848202));
#775=CARTESIAN_POINT('',(0.0149999999999962,0.00340161943095901,0.00310157915179196));
#776=CARTESIAN_POINT('',(0.0129999999999969,0.00340161943095901,0.00310157915179196));
#777=CARTESIAN_POINT('',(0.0129999999999962,0.00340161943095901,0.00510157915179196));
#778=CARTESIAN_POINT('',(0.0129999999999961,0.00340161943095901,0.00510157915179196));
#779=CARTESIAN_POINT('',(-0.0343473435744012,0.00340161943095951,0.00510157915179096));
#780=CARTESIAN_POINT('',(-0.0343473435743964,0.00340161943095851,0.00710157915179047));
#781=CARTESIAN_POINT('',(0.0132234537702805,0.00340161943095898,-0.0173984208482016));
#782=CARTESIAN_POINT('',(0.0240999999999963,0.0034016194309589,-0.0173984208482016));
#783=CARTESIAN_POINT('',(0.0199999999999963,0.0034016194309589,-0.0173984208482017));
#784=CARTESIAN_POINT('',(0.0240999999999962,0.0034016194309589,0.00360157915179201));
#785=CARTESIAN_POINT('',(0.0240999999999962,0.00340161943095896,0.00420157915179842));
#786=CARTESIAN_POINT('',(0.0132234537702805,0.00340161943095901,0.00420157915179842));
#787=CARTESIAN_POINT('',(0.0199999999999962,0.00340161943095896,0.00420157915179842));
#788=CARTESIAN_POINT('',(0.0199999999999962,0.00340161943095893,0.00360157915179199));
#789=CARTESIAN_POINT('',(0.0132234537702805,-0.00569838056903999,0.00360157915179194));
#790=CARTESIAN_POINT('',(-0.0317473435744014,-0.00569838056903951,0.0139015791517921));
#791=CARTESIAN_POINT('',(-0.0285473435744014,-0.00569838056903954,0.0139015791517921));
#792=CARTESIAN_POINT('',(0.00825265642559861,-0.00569838056903993,0.0139015791517921));
#793=CARTESIAN_POINT('',(0.0114526564255986,-0.00569838056903996,0.0139015791517921));
#794=CARTESIAN_POINT('',(0.0293634537702806,-0.00569838056904018,-0.00659842084820156));
#795=CARTESIAN_POINT('',(0.0325634537702807,-0.00569838056904021,-0.00659842084820156));
#796=CARTESIAN_POINT('',(0.0293634537702806,-0.00569838056904015,0.00390157915179745));
#797=CARTESIAN_POINT('',(0.0321634537702806,-0.00569838056904018,0.00390157915179745));
#798=CARTESIAN_POINT('',(0.0293634537702806,-0.00569838056904018,-0.0170984208482025));
#799=CARTESIAN_POINT('',(0.0321634537702806,-0.00569838056904021,-0.0170984208482025));
#800=CARTESIAN_POINT('',(-0.0363473435744014,-0.00569838056903949,0.00710157915179094));
#801=CARTESIAN_POINT('',(-0.0363473435744014,-0.00569838056903949,0.00710157915179094));
#802=CARTESIAN_POINT('',(-0.0363473435744014,-0.00569838056903949,0.0191015791517909));
#803=CARTESIAN_POINT('',(-0.0343473435743964,-0.00569838056903949,0.00710157915179044));
#804=CARTESIAN_POINT('',(-0.0343473435744013,-0.00569838056903974,0.00510157915179096));
#805=CARTESIAN_POINT('',(0.0129999999999961,-0.00569838056903999,0.00510157915179194));
#806=CARTESIAN_POINT('',(0.0129999999999969,-0.00569838056903949,0.00510157915179194));
#807=CARTESIAN_POINT('',(0.0129999999999969,-0.00569838056903999,0.00310157915179194));
#808=CARTESIAN_POINT('',(0.0149999999999961,-0.00569838056903999,0.00310157915179194));
#809=CARTESIAN_POINT('',(0.0149999999999962,-0.00569838056903999,-0.018398420848202));
#810=CARTESIAN_POINT('',(0.0149999999999995,-0.00569838056903999,-0.0183984208482025));
#811=CARTESIAN_POINT('',(0.0179999999999995,-0.00569838056903999,-0.0183984208482025));
#812=CARTESIAN_POINT('',(0.0179999999999963,-0.00569838056903999,-0.0213984208482021));
#813=CARTESIAN_POINT('',(0.0322234537702807,-0.00569838056903999,-0.0213984208482016));
#814=CARTESIAN_POINT('',(0.032223453770284,-0.00569838056903999,-0.0213984208482026));
#815=CARTESIAN_POINT('',(0.0322234537702839,-0.00569838056903999,-0.0183984208482025));
#816=CARTESIAN_POINT('',(0.0352234537702806,-0.00569838056903999,-0.018398420848202));
#817=CARTESIAN_POINT('',(0.0352234537702805,-0.00569838056903999,0.0191015791517919));
#818=CARTESIAN_POINT('',(0.0352234537702847,-0.00569838056903999,0.0191015791517914));
#819=CARTESIAN_POINT('',(0.0292234537702846,-0.00569838056903999,0.0191015791517914));
#820=CARTESIAN_POINT('',(0.0292234537702805,-0.00569838056903999,0.0251015791517924));
#821=CARTESIAN_POINT('',(-0.0303473435744013,-0.00569838056903949,0.0251015791517919));
#822=CARTESIAN_POINT('',(-0.0303473435743972,-0.00569838056903999,0.025101579151791));
#823=CARTESIAN_POINT('',(-0.0303473435743972,-0.00569838056903949,0.0191015791517909));
#824=CARTESIAN_POINT('',(0.0240999999999961,-0.00569838056904012,-0.00659842084820159));
#825=CARTESIAN_POINT('',(0.0240999999999962,-0.00569838056904012,-0.0173984208482016));
#826=CARTESIAN_POINT('',(0.0240999999999961,-0.0056983805690401,0.00420157915179842));
#827=CARTESIAN_POINT('',(0.0220499999999962,-0.0056983805690401,-0.0173984208482016));
#828=CARTESIAN_POINT('',(0.0199999999999962,-0.0056983805690401,-0.0173984208482016));
#829=CARTESIAN_POINT('',(0.0199999999999961,-0.00569838056904007,-0.00659842084820159));
#830=CARTESIAN_POINT('',(0.0199999999999961,-0.00569838056904007,0.00420157915179842));
#831=CARTESIAN_POINT('',(0.0220499999999961,-0.00569838056904007,0.00420157915179842));
#832=CARTESIAN_POINT('',(-0.0120000000000022,-0.00909838056904,0.025101579151792));
#833=CARTESIAN_POINT('',(-0.0303473435744015,-0.00909838056904,0.025101579151791));
#834=CARTESIAN_POINT('',(0.0292234537702804,-0.009098380569041,0.025101579151792));
#835=CARTESIAN_POINT('',(0.0352234537702805,-0.009098380569041,0.00360157915179196));
#836=CARTESIAN_POINT('',(0.0352234537702804,-0.009098380569041,0.019101579151792));
#837=CARTESIAN_POINT('',(0.0352234537702805,-0.009098380569041,-0.018398420848202));
#838=CARTESIAN_POINT('',(0.012999999999996,-0.010848380569041,0.00310157915179196));
#839=CARTESIAN_POINT('',(0.0129999999999961,-0.009098380569041,0.00510157915179196));
#840=CARTESIAN_POINT('',(0.014999999999996,-0.010848380569041,0.00310157915179196));
#841=CARTESIAN_POINT('',(0.0322234537702806,-0.011598380569041,-0.018398420848202));
#842=CARTESIAN_POINT('',(0.0322234537702806,-0.011598380569041,-0.021398420848202));
#843=CARTESIAN_POINT('',(0.0179999999999962,-0.010848380569041,-0.018398420848202));
#844=CARTESIAN_POINT('',(0.0179999999999962,-0.01309838056904,-0.021398420848202));
#845=CARTESIAN_POINT('',(0.0149999999999961,-0.01809838056904,-0.018398420848202));
#846=CARTESIAN_POINT('',(-0.0343473435744014,-0.00909838056904,0.00710157915179097));
#847=CARTESIAN_POINT('',(-0.0343473435744013,-0.00909838056904,0.00510157915179096));
#848=CARTESIAN_POINT('',(-0.0363473435744014,-0.01809838056904,0.00710157915179097));
#849=CARTESIAN_POINT('',(0.0292234537702804,-0.009098380569041,0.019101579151792));
#850=CARTESIAN_POINT('',(-0.0303473435744014,-0.00909838056904,0.019101579151791));
#851=CARTESIAN_POINT('',(-0.0363473435744014,-0.00909838056904,0.019101579151791));
#852=CARTESIAN_POINT('',(0.0149999999999961,-0.010848380569041,-0.00239842084820499));
#853=CARTESIAN_POINT('',(0.0132234537702805,-0.009098380569041,0.00510157915179196));
#854=CARTESIAN_POINT('',(-0.037500000000003,-0.01159838056904,-0.021398420848202));
#855=CARTESIAN_POINT('',(-0.0363473435744013,-0.00909838056904,0.00360157915179096));
#856=CARTESIAN_POINT('',(0.0220499999999975,0.117012936808775,-0.0173984208482017));
#857=CARTESIAN_POINT('',(0.0199999999999975,0.117012936808775,-0.0173984208482017));
#858=CARTESIAN_POINT('',(0.0240999999999975,0.117012936808775,-0.0173984208482017));
#859=CARTESIAN_POINT('',(0.0240999999999974,0.117012936808775,-0.00659842084820173));
#860=CARTESIAN_POINT('',(0.0240999999999974,0.117012936808775,0.00420157915179828));
#861=CARTESIAN_POINT('',(0.0220499999999974,0.117012936808775,0.00420157915179828));
#862=CARTESIAN_POINT('',(0.0199999999999974,0.117012936808775,0.00420157915179828));
#863=CARTESIAN_POINT('',(0.0199999999999975,0.117012936808775,-0.00659842084820173));
#864=CARTESIAN_POINT('',(0.029363453770282,0.117012936808775,-0.0170984208482027));
#865=CARTESIAN_POINT('',(0.029363453770282,0.117012936808775,0.00390157915179731));
#866=CARTESIAN_POINT('',(-0.0317473435744014,-0.00369838056903951,0.0139015791517921));
#867=CARTESIAN_POINT('',(-0.0317473435744014,-0.00369838056903951,0.0139015791517921));
#868=CARTESIAN_POINT('',(-0.0285473435744013,-0.00369838056903954,0.0139015791517921));
#869=CARTESIAN_POINT('',(-0.000561944902058346,-0.00369838056903985,0.00185157915179496));
#870=CARTESIAN_POINT('',(0.0293634537702807,-0.00369838056904018,-0.00659842084820156));
#871=CARTESIAN_POINT('',(0.0293634537702807,-0.00369838056904018,-0.00659842084820156));
#872=CARTESIAN_POINT('',(0.0325634537702807,-0.00369838056904021,-0.00659842084820156));
#873=CARTESIAN_POINT('',(-0.000561944902058346,-0.00369838056903985,0.00185157915179496));
#874=CARTESIAN_POINT('',(0.00825265642559863,-0.00369838056903993,0.0139015791517921));
#875=CARTESIAN_POINT('',(0.00825265642559863,-0.00369838056903993,0.0139015791517921));
#876=CARTESIAN_POINT('',(0.0114526564255986,-0.00369838056903996,0.0139015791517921));
#877=CARTESIAN_POINT('',(-0.000561944902058346,-0.00369838056903985,0.00185157915179496));
#878=MECHANICAL_DESIGN_GEOMETRIC_PRESENTATION_REPRESENTATION('',(#515),
#879);
#879=(
GEOMETRIC_REPRESENTATION_CONTEXT(3)
GLOBAL_UNCERTAINTY_ASSIGNED_CONTEXT((#880))
GLOBAL_UNIT_ASSIGNED_CONTEXT((#883,#882,#881))
REPRESENTATION_CONTEXT('L bracket','TOP_LEVEL_ASSEMBLY_PART')
);
#880=UNCERTAINTY_MEASURE_WITH_UNIT(LENGTH_MEASURE(1.E-8),#883,
'DISTANCE_ACCURACY_VALUE','Maximum Tolerance applied to model');
#881=(
NAMED_UNIT(*)
SI_UNIT($,.STERADIAN.)
SOLID_ANGLE_UNIT()
);
#882=(
NAMED_UNIT(*)
PLANE_ANGLE_UNIT()
SI_UNIT($,.RADIAN.)
);
#883=(
LENGTH_UNIT()
NAMED_UNIT(*)
SI_UNIT($,.METRE.)
);
#884=PRODUCT_DEFINITION_SHAPE('','',#885);
#885=PRODUCT_DEFINITION('','',#887,#886);
#886=PRODUCT_DEFINITION_CONTEXT('',#893,'design');
#887=PRODUCT_DEFINITION_FORMATION_WITH_SPECIFIED_SOURCE('','',#889,
 .NOT_KNOWN.);
#888=PRODUCT_RELATED_PRODUCT_CATEGORY('','',(#889));
#889=PRODUCT('L bracket','L bracket','L bracket',(#891));
#890=PRODUCT_CATEGORY('','');
#891=PRODUCT_CONTEXT('',#893,'mechanical');
#892=APPLICATION_PROTOCOL_DEFINITION('international standard',
'ap242_managed_model_based_3d_engineering',2020,#893);
#893=APPLICATION_CONTEXT('managed model based 3d engineering');
ENDSEC;
END-ISO-10303-21;
